<?xml version="1.0" encoding="UTF-8"?>
<!DOCTYPE svg PUBLIC "-//W3C//DTD SVG 1.1//EN" "http://www.w3.org/Graphics/SVG/1.1/DTD/svg11.dtd">
<svg xmlns="http://www.w3.org/2000/svg" version="1.1" width="1723px" height="1250px" style="shape-rendering:geometricPrecision; text-rendering:geometricPrecision; image-rendering:optimizeQuality; fill-rule:evenodd; clip-rule:evenodd" xmlns:xlink="http://www.w3.org/1999/xlink">
<g><path style="opacity:0.996" fill="#324288" d="M 522.5,-0.5 C 525.5,-0.5 528.5,-0.5 531.5,-0.5C 535.948,4.60331 537.948,10.6033 537.5,17.5C 537.172,24.3081 536.005,30.9748 534,37.5C 517.843,71.479 502.51,105.812 488,140.5C 467.482,191.238 455.482,243.905 452,298.5C 450.934,324.219 451.601,349.886 454,375.5C 454.783,388.837 459.283,400.671 467.5,411C 477.734,418.076 487.9,417.91 498,410.5C 503.683,402.792 507.016,394.126 508,384.5C 510.221,359.853 512.221,335.186 514,310.5C 514.988,295.193 519.654,281.193 528,268.5C 539.071,257.615 551.238,256.115 564.5,264C 577.461,276.419 585.294,291.586 588,309.5C 592.83,334.285 594.496,359.285 593,384.5C 587.624,420.047 586.458,455.714 589.5,491.5C 588.703,537.71 594.536,583.043 607,627.5C 612.2,645.439 619.534,662.439 629,678.5C 652.366,713.04 679.866,744.04 711.5,771.5C 670.08,757.791 631.747,738.291 596.5,713C 512.9,652.412 450.4,574.912 409,480.5C 378.547,402.602 371.547,322.602 388,240.5C 402.693,149.936 442.527,72.7696 507.5,9C 512.26,5.29626 517.26,2.12959 522.5,-0.5 Z"/></g>
<g><path style="opacity:0.997" fill="#324288" d="M 1205.5,-0.5 C 1208.17,-0.5 1210.83,-0.5 1213.5,-0.5C 1225.23,6.03835 1235.73,14.3717 1245,24.5C 1298.65,83.8081 1332.65,153.141 1347,232.5C 1369.53,340.643 1353.53,442.643 1299,538.5C 1244.61,631.229 1169.77,702.396 1074.5,752C 1058.6,759.621 1042.26,766.121 1025.5,771.5C 1055.76,745.083 1082.26,715.416 1105,682.5C 1122.26,653.388 1133.59,622.055 1139,588.5C 1144.61,556.892 1146.77,525.226 1145.5,493.5C 1147.17,488.378 1148,483.044 1148,477.5C 1148.67,461.5 1148.67,445.5 1148,429.5C 1145.59,408.549 1143.76,387.549 1142.5,366.5C 1142.43,339.472 1146.6,313.138 1155,287.5C 1159.68,276.165 1167.18,267.332 1177.5,261C 1196.12,256.564 1208.95,263.397 1216,281.5C 1219.61,292.225 1221.95,303.225 1223,314.5C 1224.3,338.898 1226.3,363.232 1229,387.5C 1230.16,396.99 1233.99,405.157 1240.5,412C 1257.24,420.052 1269.41,415.552 1277,398.5C 1280.02,389.389 1282.02,380.056 1283,370.5C 1289.29,308.61 1283.29,247.943 1265,188.5C 1250.53,142.895 1232.2,98.8946 1210,56.5C 1203.94,43.9791 1200.1,30.8125 1198.5,17C 1198.62,10.1006 1200.96,4.26722 1205.5,-0.5 Z"/></g>
<g><path style="opacity:0.987" fill="#032856" d="M 847.5,72.5 C 812.429,77.6229 777.429,83.2896 742.5,89.5C 711.528,78.897 680.861,67.397 650.5,55C 649.5,54.3333 648.5,54.3333 647.5,55C 649.093,55.9487 650.426,57.1154 651.5,58.5C 651.167,75.1667 650.833,91.8333 650.5,108.5C 648.167,108.5 645.833,108.5 643.5,108.5C 642.677,89.1575 641.677,69.8241 640.5,50.5C 676.173,44.9435 711.839,39.2769 747.5,33.5C 781.807,45.4368 815.807,58.2701 849.5,72C 848.906,72.4643 848.239,72.631 847.5,72.5 Z"/></g>
<g><path style="opacity:0.994" fill="#031e4a" d="M 1078.5,58.5 C 1080.43,56.5259 1082.76,55.0259 1085.5,54C 1086.7,53.3457 1086.7,52.8457 1085.5,52.5C 1053.1,65.6316 1020.43,77.965 987.5,89.5C 952.471,83.9396 917.471,78.273 882.5,72.5C 882.062,72.5654 881.728,72.3988 881.5,72C 914.747,58.084 948.414,45.2507 982.5,33.5C 1018.16,39.2767 1053.83,44.9433 1089.5,50.5C 1088.58,69.8379 1087.58,89.1713 1086.5,108.5C 1084.17,108.5 1081.83,108.5 1079.5,108.5C 1079.42,91.827 1079.09,75.1603 1078.5,58.5 Z"/></g>
<g><path style="opacity:0.994" fill="#04386b" d="M 847.5,72.5 C 832.726,78.2042 817.726,83.5376 802.5,88.5C 781.843,94.9968 761.343,101.997 741,109.5C 724.851,99.5104 708.351,90.1771 691.5,81.5C 678.167,73.8333 664.833,66.1667 651.5,58.5C 650.426,57.1154 649.093,55.9487 647.5,55C 648.5,54.3333 649.5,54.3333 650.5,55C 680.861,67.397 711.528,78.897 742.5,89.5C 777.429,83.2896 812.429,77.6229 847.5,72.5 Z"/></g>
<g><path style="opacity:0.994" fill="#04386b" d="M 1078.5,58.5 C 1065.97,65.5962 1053.63,72.9296 1041.5,80.5C 1023.67,89.4802 1006.17,99.1469 989,109.5C 970.243,102.859 951.409,96.5254 932.5,90.5C 915.687,84.6755 899.021,78.6755 882.5,72.5C 917.471,78.273 952.471,83.9396 987.5,89.5C 1020.43,77.965 1053.1,65.6316 1085.5,52.5C 1086.7,52.8457 1086.7,53.3457 1085.5,54C 1082.76,55.0259 1080.43,56.5259 1078.5,58.5 Z"/></g>
<g><path style="opacity:0.993" fill="#314288" d="M 1041.5,80.5 C 1060.94,105.943 1063.77,133.276 1050,162.5C 1040.19,179.298 1025.69,189.465 1006.5,193C 1038.6,195.635 1066.6,186.301 1090.5,165C 1102.79,153.054 1113.95,140.22 1124,126.5C 1128.58,121.254 1133.74,116.754 1139.5,113C 1144.61,111.924 1148.77,113.424 1152,117.5C 1159.81,137.62 1161.48,158.287 1157,179.5C 1148.11,222.606 1130.11,261.272 1103,295.5C 1095.87,309.332 1093.53,323.998 1096,339.5C 1104.15,387.461 1104.48,435.461 1097,483.5C 1093.44,505.322 1089.1,526.989 1084,548.5C 1080.35,567.003 1070.85,581.503 1055.5,592C 1040.55,601.054 1028.38,598.22 1019,583.5C 1012.48,572.285 1008.15,560.285 1006,547.5C 1004.89,535.752 1003.23,524.085 1001,512.5C 998.874,503.762 995.04,495.929 989.5,489C 988.391,488.362 987.225,487.862 986,487.5C 983.61,488.278 981.443,489.445 979.5,491C 975.638,495.229 972.138,499.729 969,504.5C 958.963,523.253 949.296,542.253 940,561.5C 932.768,576.137 922.601,588.304 909.5,598C 894.828,603.601 881.328,601.435 869,591.5C 848.077,606.341 828.744,604.674 811,586.5C 808,582.167 805,577.833 802,573.5C 791.349,552.198 780.682,530.864 770,509.5C 766.111,502.89 761.611,496.723 756.5,491C 754.5,490.333 752.5,490.333 750.5,491C 747.371,494.752 744.871,498.919 743,503.5C 737.207,525.464 731.54,547.464 726,569.5C 722.898,580.56 716.731,589.393 707.5,596C 697.256,599.776 687.922,598.109 679.5,591C 666.121,579.084 656.621,564.584 651,547.5C 642.883,522.131 638.216,496.131 637,469.5C 635.034,423.814 635.534,378.148 638.5,332.5C 638.466,324.469 637.966,316.469 637,308.5C 636.466,304.232 635.133,300.232 633,296.5C 623.84,286.34 615.84,275.34 609,263.5C 593.663,233.823 583.33,202.49 578,169.5C 576.648,156.615 577.648,143.948 581,131.5C 585.862,119.763 594.362,115.93 606.5,120C 610.336,122.084 614.003,124.417 617.5,127C 629.72,142.892 643.053,157.892 657.5,172C 671.679,184.286 688.179,191.119 707,192.5C 711.028,192.216 714.862,191.382 718.5,190C 681.151,170.795 668.318,140.962 680,100.5C 682.867,93.4917 686.701,87.1584 691.5,81.5C 708.351,90.1771 724.851,99.5104 741,109.5C 761.343,101.997 781.843,94.9968 802.5,88.5C 816.983,113.959 817.149,139.626 803,165.5C 795.293,178.54 784.126,187.04 769.5,191C 790.531,195.789 811.198,201.789 831.5,209C 846.515,215.157 858.848,224.657 868.5,237.5C 898.382,214.398 932.049,199.731 969.5,193.5C 931.969,177.106 917.136,148.773 925,108.5C 926.687,102.13 929.187,96.1301 932.5,90.5C 951.409,96.5254 970.243,102.859 989,109.5C 1006.17,99.1469 1023.67,89.4802 1041.5,80.5 Z M 615.5,180.5 C 635.453,200.153 658.453,215.32 684.5,226C 703.8,232.392 723.634,235.559 744,235.5C 758.824,234.469 773.657,234.302 788.5,235C 813.057,236.859 832.557,247.693 847,267.5C 823.407,305.174 811.907,346.507 812.5,391.5C 813.194,414.97 815.361,438.304 819,461.5C 824.861,492.596 830.861,523.596 837,554.5C 832.085,547.672 827.419,540.672 823,533.5C 812.682,512.192 801.349,491.525 789,471.5C 780.497,459.084 768.831,451.751 754,449.5C 741.544,450.946 731.878,456.946 725,467.5C 721.139,473.888 717.806,480.554 715,487.5C 710.333,502.833 705.667,518.167 701,533.5C 699.545,536.912 697.712,540.079 695.5,543C 692.692,543.92 690.525,543.087 689,540.5C 683.473,528.394 679.806,515.727 678,502.5C 671.908,458.702 669.908,414.702 672,370.5C 673.683,346.395 676.017,322.395 679,298.5C 678.09,293.349 676.09,288.682 673,284.5C 665.667,276.5 658.333,268.5 651,260.5C 634.028,236.213 622.194,209.546 615.5,180.5 Z M 1116.5,189.5 C 1112.16,215.957 1101.66,239.957 1085,261.5C 1073.11,272.042 1064.44,284.709 1059,299.5C 1058.33,305.167 1058.33,310.833 1059,316.5C 1070.92,362.959 1073.59,409.959 1067,457.5C 1064.83,480.173 1060.83,502.506 1055,524.5C 1053.22,530.723 1050.89,536.723 1048,542.5C 1046.28,545.73 1044.28,546.064 1042,543.5C 1038.02,525.221 1033.02,507.221 1027,489.5C 1022.87,478.07 1016.37,468.237 1007.5,460C 998.047,453.854 987.714,451.854 976.5,454C 964.15,456.015 953.983,461.848 946,471.5C 941.826,477.846 938.159,484.512 935,491.5C 927.384,515.745 915.384,537.412 899,556.5C 906.68,520.763 913.346,484.763 919,448.5C 924.378,412.863 924.711,377.196 920,341.5C 916.166,315.176 905.833,291.843 889,271.5C 888.333,270.833 888.333,270.167 889,269.5C 898.71,255.395 911.543,245.228 927.5,239C 939.184,234.746 951.184,231.746 963.5,230C 990.467,227.313 1017.47,224.98 1044.5,223C 1065,221.464 1084,215.464 1101.5,205C 1107.38,200.626 1112.38,195.459 1116.5,189.5 Z"/></g>
<g><path style="opacity:0.975" fill="#314287" d="M 381.5,485.5 C 384.291,489.997 386.624,494.83 388.5,500C 378.312,504.592 367.979,508.925 357.5,513C 354.152,516.419 353.652,520.252 356,524.5C 358.653,527.194 361.82,528.027 365.5,527C 374.667,523.5 383.833,520 393,516.5C 393.772,516.645 394.439,516.978 395,517.5C 397.178,522.021 398.511,526.687 399,531.5C 389.262,535.525 379.429,539.358 369.5,543C 356.999,545.5 348.166,541 343,529.5C 339.134,520.089 339.801,511.089 345,502.5C 346.558,500.641 348.391,499.141 350.5,498C 360.973,493.905 371.306,489.738 381.5,485.5 Z"/></g>
<g><path style="opacity:0.98" fill="#fce402" d="M 1145.5,493.5 C 1146.77,525.226 1144.61,556.892 1139,588.5C 1133.59,622.055 1122.26,653.388 1105,682.5C 1082.26,715.416 1055.76,745.083 1025.5,771.5C 1024.37,772.122 1023.37,772.955 1022.5,774C 975.737,789.08 928.071,792.746 879.5,785C 875.921,784.208 872.588,782.875 869.5,781C 911.037,779.284 949.704,767.951 985.5,747C 1019.6,726.582 1049.1,700.748 1074,669.5C 1092.46,646.685 1108.13,622.018 1121,595.5C 1134.19,562.714 1142.36,528.714 1145.5,493.5 Z"/></g>
<g><path style="opacity:0.981" fill="#fce402" d="M 589.5,491.5 C 593.461,522.021 600.294,552.021 610,581.5C 615.81,598.119 623.477,613.786 633,628.5C 653.463,660.309 677.63,689.142 705.5,715C 739.579,744.208 778.579,764.208 822.5,775C 837.467,777.33 852.467,779.33 867.5,781C 859.582,784.651 851.249,786.651 842.5,787C 798.847,792.112 756.18,787.779 714.5,774C 713.058,773.623 712.058,772.79 711.5,771.5C 679.866,744.04 652.366,713.04 629,678.5C 619.534,662.439 612.2,645.439 607,627.5C 594.536,583.043 588.703,537.71 589.5,491.5 Z"/></g>
<g><path style="opacity:0.978" fill="#314288" d="M 1329.5,528.5 C 1348.18,529 1366.85,529.834 1385.5,531C 1383.2,535.759 1381.04,540.592 1379,545.5C 1375.98,545.354 1372.81,545.688 1369.5,546.5C 1367.03,551.942 1364.7,557.442 1362.5,563C 1364.38,565.378 1366.05,567.878 1367.5,570.5C 1365.59,575.312 1363.43,579.979 1361,584.5C 1347.8,570.967 1334.97,557.134 1322.5,543C 1325.12,538.284 1327.46,533.45 1329.5,528.5 Z M 1342.5,544.5 C 1347.08,543.475 1351.75,543.808 1356.5,545.5C 1355.35,548.289 1354.02,550.956 1352.5,553.5C 1349.15,550.478 1345.81,547.478 1342.5,544.5 Z"/></g>
<g><path style="opacity:0.978" fill="#314288" d="M 406.5,547.5 C 407.496,547.414 408.329,547.748 409,548.5C 411.363,551.893 413.196,555.56 414.5,559.5C 410.779,569.276 406.779,578.943 402.5,588.5C 402.833,588.833 403.167,589.167 403.5,589.5C 410.663,585.753 417.663,581.753 424.5,577.5C 427.65,581.119 430.316,585.119 432.5,589.5C 418.096,598.789 403.263,607.456 388,615.5C 385.386,611.781 382.886,607.948 380.5,604C 384.926,594.225 389.26,584.392 393.5,574.5C 393.167,574.167 392.833,573.833 392.5,573.5C 385.56,577.887 378.393,581.887 371,585.5C 367.883,582.106 365.383,578.273 363.5,574C 363.645,573.228 363.978,572.561 364.5,572C 378.727,564.059 392.727,555.892 406.5,547.5 Z"/></g>
<g><path style="opacity:0.976" fill="#314288" d="M 1304.5,575.5 C 1319.55,584.384 1334.22,593.884 1348.5,604C 1346.69,608.465 1344.02,612.298 1340.5,615.5C 1333.78,610.555 1326.78,606.388 1319.5,603C 1323.75,608.845 1327.75,614.845 1331.5,621C 1330.24,625.085 1327.74,627.919 1324,629.5C 1317.15,627.927 1310.31,626.76 1303.5,626C 1311.11,630.609 1318.44,635.609 1325.5,641C 1322.71,644.746 1320.04,648.579 1317.5,652.5C 1303.01,643.169 1288.68,633.669 1274.5,624C 1276.75,619.412 1279.42,615.079 1282.5,611C 1292.54,611.721 1302.54,612.721 1312.5,614C 1306.91,606.155 1301.58,598.155 1296.5,590C 1299.41,585.27 1302.07,580.436 1304.5,575.5 Z"/></g>
<g><path style="opacity:0.976" fill="#314187" d="M 443.5,608.5 C 444.496,608.414 445.329,608.748 446,609.5C 447.421,612.009 449.088,614.343 451,616.5C 452.751,618.212 453.418,620.212 453,622.5C 439.333,632.167 425.667,641.833 412,651.5C 407.931,647.323 404.931,642.657 403,637.5C 416.681,627.97 430.181,618.304 443.5,608.5 Z"/></g>
<g><path style="opacity:0.972" fill="#314187" d="M 464.5,635.5 C 468.948,639.117 472.948,643.284 476.5,648C 469.956,657.941 464.123,668.108 459,678.5C 469.088,673.624 479.422,669.29 490,665.5C 494.488,668.654 498.321,672.488 501.5,677C 484.171,683.888 466.671,690.388 449,696.5C 445.31,692.311 441.81,687.978 438.5,683.5C 447.179,667.473 455.846,651.473 464.5,635.5 Z"/></g>
<g><path style="opacity:0.978" fill="#314287" d="M 1249.5,651.5 C 1267.85,656.505 1285.85,662.505 1303.5,669.5C 1299.98,673.186 1296.65,677.019 1293.5,681C 1290.69,681.442 1288.03,680.942 1285.5,679.5C 1280.4,683.77 1275.73,688.603 1271.5,694C 1273.42,696.645 1274.58,699.479 1275,702.5C 1271.95,706.592 1268.45,710.258 1264.5,713.5C 1255.97,697.103 1247.97,680.436 1240.5,663.5C 1243.49,659.507 1246.49,655.507 1249.5,651.5 Z M 1258.5,670.5 C 1258.74,669.903 1259.24,669.57 1260,669.5C 1263.97,670.877 1267.8,672.544 1271.5,674.5C 1269.73,677.06 1267.73,679.393 1265.5,681.5C 1262.89,677.938 1260.56,674.271 1258.5,670.5 Z"/></g>
<g><path style="opacity:0.976" fill="#314187" d="M 1221.5,683.5 C 1222.24,683.369 1222.91,683.536 1223.5,684C 1225.64,686.979 1227.98,689.812 1230.5,692.5C 1227.81,696.021 1224.65,699.021 1221,701.5C 1220.33,702.5 1220.33,703.5 1221,704.5C 1229.43,713.22 1237.26,722.386 1244.5,732C 1241.01,735.988 1237.01,739.488 1232.5,742.5C 1224,732.833 1215.5,723.167 1207,713.5C 1203.78,716.855 1200.28,719.855 1196.5,722.5C 1192.98,719.813 1189.98,716.647 1187.5,713C 1198.73,702.928 1210.06,693.095 1221.5,683.5 Z"/></g>
<g><path style="opacity:0.973" fill="#314287" d="M 510.5,687.5 C 511.922,687.709 513.255,688.209 514.5,689C 524.587,697.376 534.254,706.21 543.5,715.5C 541.528,719.105 538.861,722.105 535.5,724.5C 528.852,719.02 522.352,713.353 516,707.5C 514.315,709.017 512.815,710.684 511.5,712.5C 517.314,717.903 523.314,723.07 529.5,728C 527.021,731.647 524.021,734.813 520.5,737.5C 514.519,732.687 508.686,727.687 503,722.5C 501.5,724 500,725.5 498.5,727C 505.343,733.011 512.01,739.178 518.5,745.5C 516.058,748.729 513.392,751.729 510.5,754.5C 499.324,745.486 488.657,735.986 478.5,726C 489.388,713.285 500.054,700.452 510.5,687.5 Z"/></g>
<g><path style="opacity:0.98" fill="#314287" d="M 561.5,727.5 C 571.359,733.517 580.526,740.517 589,748.5C 594.675,758.826 592.841,767.66 583.5,775C 579.882,776.653 576.215,778.153 572.5,779.5C 571.902,785.529 571.069,791.529 570,797.5C 565.167,794 560.333,790.5 555.5,787C 556.551,782.538 557.551,778.038 558.5,773.5C 557.141,771.308 555.308,769.641 553,768.5C 550.3,772.195 547.3,775.528 544,778.5C 539.681,775.676 535.514,772.676 531.5,769.5C 541.51,755.471 551.51,741.471 561.5,727.5 Z M 567.5,747.5 C 571.84,749.84 575.173,753.173 577.5,757.5C 576.195,760.638 574.029,762.971 571,764.5C 567.066,762.786 563.566,760.452 560.5,757.5C 562.843,754.138 565.176,750.804 567.5,747.5 Z"/></g>
<g><path style="opacity:0.98" fill="#314288" d="M 1164.5,731.5 C 1179.45,729.222 1189.95,734.889 1196,748.5C 1199.69,764.963 1193.85,776.796 1178.5,784C 1163.75,788.751 1152.25,784.585 1144,771.5C 1138.35,751.794 1145.19,738.461 1164.5,731.5 Z M 1164.5,746.5 C 1179.24,746.645 1184.07,753.645 1179,767.5C 1169.95,773.318 1162.95,771.318 1158,761.5C 1156.37,754.775 1158.53,749.775 1164.5,746.5 Z"/></g>
<g><path style="opacity:0.98" fill="#314187" d="M 1107.5,767.5 C 1120.78,767.436 1128.11,774.103 1129.5,787.5C 1129.03,790.547 1128.03,793.381 1126.5,796C 1132.04,799.265 1137.37,802.765 1142.5,806.5C 1137.62,809.438 1132.62,812.105 1127.5,814.5C 1122.94,812.115 1118.77,809.115 1115,805.5C 1112.91,806.794 1110.75,807.961 1108.5,809C 1111.08,812.971 1112.91,817.137 1114,821.5C 1109.67,823.833 1105.33,826.167 1101,828.5C 1092.52,813.71 1084.69,798.543 1077.5,783C 1086.8,776.518 1096.8,771.351 1107.5,767.5 Z M 1105.5,781.5 C 1110.63,780.958 1113.29,783.291 1113.5,788.5C 1113.61,790.374 1112.94,791.874 1111.5,793C 1108.59,794.373 1105.75,795.873 1103,797.5C 1101.17,793.833 1099.33,790.167 1097.5,786.5C 1100.23,784.808 1102.9,783.142 1105.5,781.5 Z"/></g>
<g><path style="opacity:0.974" fill="#314287" d="M 617.5,768.5 C 632.02,768.546 643.02,774.713 650.5,787C 647.669,790.324 644.336,793.157 640.5,795.5C 637.06,792.138 633.727,788.638 630.5,785C 628.294,782.654 625.794,782.154 623,783.5C 623.044,785.279 623.711,786.945 625,788.5C 633.812,793.804 638.145,801.471 638,811.5C 636.594,816.573 633.428,820.073 628.5,822C 611.612,823.055 599.278,816.055 591.5,801C 595.024,797.975 598.691,795.142 602.5,792.5C 605.557,798.062 609.557,802.895 614.5,807C 616.677,808.202 619.011,808.702 621.5,808.5C 621.657,807.127 621.49,805.793 621,804.5C 615.966,799.801 611.3,794.801 607,789.5C 604.114,779.273 607.614,772.273 617.5,768.5 Z"/></g>
<g><path style="opacity:0.98" fill="#314288" d="M 670.5,789.5 C 675.836,790.668 680.836,792.668 685.5,795.5C 679.097,811.046 673.097,826.712 667.5,842.5C 661.745,841.623 656.412,839.623 651.5,836.5C 658.037,820.885 664.37,805.218 670.5,789.5 Z"/></g>
<g><path style="opacity:0.973" fill="#314288" d="M 1040.5,795.5 C 1042.14,795.286 1043.64,795.62 1045,796.5C 1056.31,809.981 1067.81,823.314 1079.5,836.5C 1074.98,839.175 1070.15,841.175 1065,842.5C 1062.34,840.673 1059.84,838.673 1057.5,836.5C 1052.21,838.43 1046.88,840.264 1041.5,842C 1039.96,844.878 1038.96,848.045 1038.5,851.5C 1033.83,853.167 1029.17,854.833 1024.5,856.5C 1025.04,837.933 1026.21,819.267 1028,800.5C 1032.29,798.909 1036.46,797.242 1040.5,795.5 Z M 1040.5,814.5 C 1043.97,818.141 1047.3,821.974 1050.5,826C 1047.24,826.975 1044.07,828.142 1041,829.5C 1040.5,824.511 1040.33,819.511 1040.5,814.5 Z"/></g>
<g><path style="opacity:0.974" fill="#314287" d="M 701.5,801.5 C 716.07,805.809 730.736,809.809 745.5,813.5C 745.367,818.397 743.867,822.73 741,826.5C 736.598,824.975 732.098,823.975 727.5,823.5C 724.698,836.067 721.198,848.4 717,860.5C 712.324,858.622 707.491,857.289 702.5,856.5C 705.133,843.802 708.466,831.302 712.5,819C 708.608,817.36 704.608,816.027 700.5,815C 699.572,814.612 698.905,813.945 698.5,813C 699.894,809.255 700.894,805.422 701.5,801.5 Z"/></g>
<g><path style="opacity:0.975" fill="#314287" d="M 990.5,811.5 C 994.925,827.428 998.925,843.594 1002.5,860C 1002.25,861.326 1001.58,862.326 1000.5,863C 996.554,864.324 992.554,864.991 988.5,865C 980.333,858.167 972.167,851.333 964,844.5C 965.627,853.13 967.46,861.796 969.5,870.5C 964.473,871.372 959.473,872.372 954.5,873.5C 950.961,856.472 947.294,839.472 943.5,822.5C 947.917,821.883 952.25,820.883 956.5,819.5C 965.092,826.381 973.592,833.381 982,840.5C 980.517,831.884 979.017,823.217 977.5,814.5C 982.052,813.943 986.385,812.943 990.5,811.5 Z"/></g>
<g><path style="opacity:0.978" fill="#314288" d="M 774.5,819.5 C 778.777,820.522 783.111,821.355 787.5,822C 789.061,822.318 790.228,823.151 791,824.5C 794.644,841.887 798.477,859.22 802.5,876.5C 801.833,876.833 801.167,877.167 800.5,877.5C 795.82,876.498 791.153,875.498 786.5,874.5C 785.028,871.851 784.028,869.018 783.5,866C 777.631,864.994 771.797,863.827 766,862.5C 763.362,863.917 761.528,866.084 760.5,869C 754.597,869.183 748.93,868.183 743.5,866C 754.216,850.729 764.549,835.229 774.5,819.5 Z M 778.5,838.5 C 780.185,843.275 781.018,848.275 781,853.5C 777.853,852.722 774.687,851.889 771.5,851C 774.238,847.021 776.571,842.855 778.5,838.5 Z"/></g>
<g><path style="opacity:0.978" fill="#314288" d="M 839.5,826.5 C 849.406,825.477 858.739,827.31 867.5,832C 868.022,832.561 868.355,833.228 868.5,834C 866.89,838.054 864.89,841.887 862.5,845.5C 858.397,843.115 854.064,841.282 849.5,840C 846.621,839.126 843.955,839.46 841.5,841C 842.047,841.925 842.713,842.758 843.5,843.5C 849.622,845.707 855.622,848.207 861.5,851C 867.055,855.578 868.888,861.412 867,868.5C 865.098,873.4 861.598,876.567 856.5,878C 843.252,880.95 831.252,878.284 820.5,870C 822.389,865.71 824.889,861.877 828,858.5C 832.456,861.646 837.29,864.146 842.5,866C 845.099,866.769 847.599,866.602 850,865.5C 850.781,864.056 850.614,862.723 849.5,861.5C 843.127,859.098 836.794,856.598 830.5,854C 823.594,845.716 823.928,837.716 831.5,830C 834.158,828.522 836.825,827.355 839.5,826.5 Z"/></g>
<g><path style="opacity:0.972" fill="#000000" d="M 442.5,959.5 C 467.671,957.101 491.337,961.934 513.5,974C 518.292,976.961 522.625,980.461 526.5,984.5C 517.523,995.978 508.356,1007.31 499,1018.5C 482.914,1003.14 464.08,997.969 442.5,1003C 422.636,1012.55 414.136,1028.39 417,1050.5C 424.926,1078.38 443.093,1089.22 471.5,1083C 474.5,1081.83 477.5,1080.67 480.5,1079.5C 481.499,1066.18 481.833,1052.85 481.5,1039.5C 495.833,1039.5 510.167,1039.5 524.5,1039.5C 524.833,1061.84 524.5,1084.18 523.5,1106.5C 489.058,1127.78 452.724,1131.95 414.5,1119C 383.317,1103.44 366.983,1078.11 365.5,1043C 367.326,1006.33 384.992,980.66 418.5,966C 426.459,963.179 434.459,961.013 442.5,959.5 Z"/></g>
<g><path style="opacity:0.974" fill="#000000" d="M -0.5,960.5 C 30.8624,960.062 62.1957,960.562 93.5,962C 124.483,968.264 140.483,987.264 141.5,1019C 141.765,1037.45 135.432,1053.12 122.5,1066C 113.97,1072.76 104.303,1077.1 93.5,1079C 78.8733,1080.37 64.2066,1080.87 49.5,1080.5C 49.5,1095.17 49.5,1109.83 49.5,1124.5C 32.8333,1124.5 16.1667,1124.5 -0.5,1124.5C -0.5,1069.83 -0.5,1015.17 -0.5,960.5 Z M 49.5,998.5 C 58.1731,998.334 66.8397,998.5 75.5,999C 87.6295,1000.97 93.9628,1008.13 94.5,1020.5C 94.0856,1032.41 88.0856,1039.58 76.5,1042C 67.5062,1042.5 58.5062,1042.67 49.5,1042.5C 49.5,1027.83 49.5,1013.17 49.5,998.5 Z"/></g>
<g><path style="opacity:0.972" fill="#000000" d="M 224.5,960.5 C 241.846,960.167 259.179,960.5 276.5,961.5C 298.833,1015.5 321.167,1069.5 343.5,1123.5C 325.833,1124.83 308.167,1124.83 290.5,1123.5C 276.568,1086.21 262.735,1048.87 249,1011.5C 235.128,1048.95 220.961,1086.28 206.5,1123.5C 189.5,1124.83 172.5,1124.83 155.5,1123.5C 178.794,1069.25 201.794,1014.92 224.5,960.5 Z"/></g>
<g><path style="opacity:0.98" fill="#000000" d="M 570.5,960.5 C 586.833,960.5 603.167,960.5 619.5,960.5C 619.041,995.202 619.541,1029.87 621,1064.5C 628.175,1082.34 641.009,1088.51 659.5,1083C 668.45,1078.61 673.617,1071.45 675,1061.5C 675.5,1027.83 675.667,994.168 675.5,960.5C 691.833,960.5 708.167,960.5 724.5,960.5C 724.667,996.502 724.5,1032.5 724,1068.5C 717.962,1099.54 699.462,1118.37 668.5,1125C 646.277,1129.07 624.944,1126.4 604.5,1117C 584.954,1105.44 573.787,1088.27 571,1065.5C 570.5,1030.5 570.333,995.502 570.5,960.5 Z"/></g>
<g><path style="opacity:0.969" fill="#000000" d="M 758.5,961.5 C 775.005,960.173 791.671,960.173 808.5,961.5C 820.254,982.674 831.754,1004.01 843,1025.5C 854.882,1004.24 866.382,982.738 877.5,961C 893.844,960.167 910.177,960.334 926.5,961.5C 907.535,998.291 888.368,1034.96 869,1071.5C 868.5,1089.16 868.333,1106.83 868.5,1124.5C 851.833,1124.5 835.167,1124.5 818.5,1124.5C 818.667,1107.16 818.5,1089.83 818,1072.5C 798.138,1035.44 778.305,998.438 758.5,961.5 Z"/></g>
<g><path style="opacity:0.969" fill="#000000" d="M 960.5,960.5 C 977.167,960.5 993.833,960.5 1010.5,960.5C 1010.33,994.502 1010.5,1028.5 1011,1062.5C 1016.65,1080.58 1028.81,1087.74 1047.5,1084C 1057.25,1080.58 1063.09,1073.74 1065,1063.5C 1065.5,1029.17 1065.67,994.835 1065.5,960.5C 1082.17,960.5 1098.83,960.5 1115.5,960.5C 1115.67,994.835 1115.5,1029.17 1115,1063.5C 1111.5,1095.35 1094.33,1115.52 1063.5,1124C 1038.34,1129.77 1014.34,1126.77 991.5,1115C 972.395,1101.97 962.228,1083.8 961,1060.5C 960.5,1027.17 960.333,993.835 960.5,960.5 Z"/></g>
<g><path style="opacity:0.974" fill="#000000" d="M 1164.5,960.5 C 1195.5,960.333 1226.5,960.5 1257.5,961C 1271.92,961.917 1284.92,966.584 1296.5,975C 1310.26,989.796 1312.09,1005.96 1302,1023.5C 1297.21,1029.96 1291.05,1034.46 1283.5,1037C 1308.09,1046.67 1317.59,1064.51 1312,1090.5C 1306.18,1106.98 1294.68,1117.14 1277.5,1121C 1272.59,1122.48 1267.59,1123.48 1262.5,1124C 1229.84,1124.5 1197.17,1124.67 1164.5,1124.5C 1164.5,1069.83 1164.5,1015.17 1164.5,960.5 Z M 1214.5,997.5 C 1226.23,997.088 1237.9,997.588 1249.5,999C 1255.14,1000.8 1257.8,1004.63 1257.5,1010.5C 1257.68,1017.64 1254.35,1022.14 1247.5,1024C 1236.51,1024.5 1225.51,1024.67 1214.5,1024.5C 1214.5,1015.5 1214.5,1006.5 1214.5,997.5 Z M 1214.5,1058.5 C 1227.22,1058.1 1239.89,1058.6 1252.5,1060C 1262.13,1064.23 1264.63,1071.07 1260,1080.5C 1258.06,1083.11 1255.56,1084.94 1252.5,1086C 1239.89,1087.42 1227.23,1087.92 1214.5,1087.5C 1214.5,1077.83 1214.5,1068.17 1214.5,1058.5 Z"/></g>
<g><path style="opacity:0.972" fill="#000000" d="M 1411.5,960.5 C 1428.83,960.5 1446.17,960.5 1463.5,960.5C 1485.34,1015.18 1507.67,1069.68 1530.5,1124C 1512.59,1124.83 1494.76,1124.66 1477,1123.5C 1463.53,1086.09 1449.86,1048.76 1436,1011.5C 1422.13,1048.95 1407.96,1086.28 1393.5,1123.5C 1376.5,1124.83 1359.5,1124.83 1342.5,1123.5C 1365.79,1069.25 1388.79,1014.92 1411.5,960.5 Z"/></g>
<g><path style="opacity:0.975" fill="#000000" d="M 1722.5,960.5 C 1722.5,1015.17 1722.5,1069.83 1722.5,1124.5C 1708.15,1124.83 1693.82,1124.5 1679.5,1123.5C 1657.53,1094.36 1635.36,1065.36 1613,1036.5C 1612.5,1065.83 1612.33,1095.16 1612.5,1124.5C 1597.17,1124.5 1581.83,1124.5 1566.5,1124.5C 1566.5,1069.83 1566.5,1015.17 1566.5,960.5C 1580.84,960.333 1595.17,960.5 1609.5,961C 1632,990.833 1654.5,1020.67 1677,1050.5C 1677.5,1020.5 1677.67,990.502 1677.5,960.5C 1692.5,960.5 1707.5,960.5 1722.5,960.5 Z"/></g>
<g><path style="opacity:0.931" fill="#000000" d="M 796.5,1175.5 C 807.8,1174.83 818.8,1176.33 829.5,1180C 832.21,1181.02 834.543,1182.52 836.5,1184.5C 833.412,1189.67 830.579,1195.01 828,1200.5C 819.107,1195.53 809.607,1193.03 799.5,1193C 798.167,1193.67 797.167,1194.67 796.5,1196C 797.878,1197.71 799.545,1199.05 801.5,1200C 809.298,1201.93 816.965,1204.27 824.5,1207C 834.715,1212.26 838.215,1220.43 835,1231.5C 830.539,1240.16 823.372,1244.99 813.5,1246C 796.671,1248.29 781.338,1244.63 767.5,1235C 770.553,1229.72 773.719,1224.55 777,1219.5C 786.649,1226.72 797.482,1229.88 809.5,1229C 813.016,1225.28 812.016,1222.62 806.5,1221C 797.128,1219.07 788.128,1216.07 779.5,1212C 769.814,1201.08 770.48,1190.75 781.5,1181C 786.434,1178.64 791.434,1176.8 796.5,1175.5 Z"/></g>
<g><path style="opacity:0.928" fill="#000000" d="M 1097.5,1249.5 C 1096.83,1249.5 1096.17,1249.5 1095.5,1249.5C 1092.51,1246.68 1089.35,1244.02 1086,1241.5C 1072.33,1248.29 1058.83,1248.12 1045.5,1241C 1034.37,1227.16 1036.71,1216.16 1052.5,1208C 1045.26,1199.17 1044.92,1190.17 1051.5,1181C 1062.44,1174.48 1073.77,1173.81 1085.5,1179C 1095.99,1187.91 1095.99,1196.91 1085.5,1206C 1082.5,1207.67 1079.5,1209.33 1076.5,1211C 1079.02,1213.68 1081.68,1216.18 1084.5,1218.5C 1086.42,1215.65 1088.09,1212.65 1089.5,1209.5C 1094.72,1211.93 1099.38,1215.1 1103.5,1219C 1102.02,1222.97 1100.02,1226.64 1097.5,1230C 1101.31,1232.65 1104.65,1235.81 1107.5,1239.5C 1103.84,1242.49 1100.51,1245.83 1097.5,1249.5 Z M 1067.5,1187.5 C 1071.7,1186.7 1074.37,1188.37 1075.5,1192.5C 1073.86,1195.97 1071.36,1198.64 1068,1200.5C 1063.67,1196.23 1063.5,1191.9 1067.5,1187.5 Z M 1060.5,1218.5 C 1065.24,1221.73 1069.57,1225.56 1073.5,1230C 1068.88,1233.31 1064.22,1233.31 1059.5,1230C 1056.62,1225.83 1056.95,1221.99 1060.5,1218.5 Z"/></g>
<g><path style="opacity:0.956" fill="#000000" d="M -0.5,1176.5 C 14.837,1176.33 30.1703,1176.5 45.5,1177C 53.8126,1177.9 60.3126,1181.73 65,1188.5C 67.3432,1197.98 64.1765,1204.81 55.5,1209C 67.4355,1214.47 70.9355,1223.3 66,1235.5C 62.5788,1239.46 58.4121,1242.29 53.5,1244C 35.5556,1245.45 17.5556,1245.95 -0.5,1245.5C -0.5,1222.5 -0.5,1199.5 -0.5,1176.5 Z M 22.5,1192.5 C 27.5111,1192.33 32.5111,1192.5 37.5,1193C 44.1667,1196.33 44.1667,1199.67 37.5,1203C 32.5111,1203.5 27.5111,1203.67 22.5,1203.5C 22.5,1199.83 22.5,1196.17 22.5,1192.5 Z M 22.5,1218.5 C 28.1764,1218.33 33.8431,1218.5 39.5,1219C 46.1667,1222.33 46.1667,1225.67 39.5,1229C 33.8431,1229.5 28.1764,1229.67 22.5,1229.5C 22.5,1225.83 22.5,1222.17 22.5,1218.5 Z"/></g>
<g><path style="opacity:0.925" fill="#000000" d="M 123.5,1176.5 C 131.5,1176.5 139.5,1176.5 147.5,1176.5C 147.5,1199.5 147.5,1222.5 147.5,1245.5C 139.5,1245.5 131.5,1245.5 123.5,1245.5C 123.5,1222.5 123.5,1199.5 123.5,1176.5 Z"/></g>
<g><path style="opacity:0.96" fill="#000000" d="M 206.5,1176.5 C 220.504,1176.33 234.504,1176.5 248.5,1177C 273.21,1181.93 283.377,1196.76 279,1221.5C 274.042,1234.79 264.542,1242.62 250.5,1245C 235.837,1245.5 221.17,1245.67 206.5,1245.5C 206.5,1222.5 206.5,1199.5 206.5,1176.5 Z M 229.5,1193.5 C 237.45,1192.41 244.783,1193.91 251.5,1198C 258.167,1207 258.167,1216 251.5,1225C 244.739,1228.91 237.406,1230.41 229.5,1229.5C 229.5,1217.5 229.5,1205.5 229.5,1193.5 Z"/></g>
<g><path style="opacity:0.965" fill="#000000" d="M 335.5,1176.5 C 343.167,1176.5 350.833,1176.5 358.5,1176.5C 358.5,1199.5 358.5,1222.5 358.5,1245.5C 350.833,1245.5 343.167,1245.5 335.5,1245.5C 335.5,1222.5 335.5,1199.5 335.5,1176.5 Z"/></g>
<g><path style="opacity:0.952" fill="#000000" d="M 417.5,1176.5 C 425.167,1176.5 432.833,1176.5 440.5,1176.5C 440.334,1184.84 440.5,1193.17 441,1201.5C 449.198,1193.64 457.031,1185.47 464.5,1177C 473.518,1176.17 482.518,1176.33 491.5,1177.5C 482.638,1186.53 473.971,1195.69 465.5,1205C 474.581,1218.49 483.915,1231.82 493.5,1245C 484.167,1245.67 474.833,1245.67 465.5,1245C 459.631,1237.43 454.131,1229.6 449,1221.5C 446.333,1224.17 443.667,1226.83 441,1229.5C 440.501,1234.82 440.334,1240.16 440.5,1245.5C 432.833,1245.5 425.167,1245.5 417.5,1245.5C 417.5,1222.5 417.5,1199.5 417.5,1176.5 Z"/></g>
<g><path style="opacity:0.952" fill="#000000" d="M 546.5,1176.5 C 554.84,1176.33 563.173,1176.5 571.5,1177C 577.462,1189.09 583.295,1201.26 589,1213.5C 594.561,1201.38 600.394,1189.38 606.5,1177.5C 614.807,1176.5 623.14,1176.17 631.5,1176.5C 631.5,1199.5 631.5,1222.5 631.5,1245.5C 624.833,1245.5 618.167,1245.5 611.5,1245.5C 611.667,1232.83 611.5,1220.16 611,1207.5C 606.608,1217.95 601.941,1228.29 597,1238.5C 591.667,1239.83 586.333,1239.83 581,1238.5C 576.667,1228.83 572.333,1219.17 568,1209.5C 567.5,1221.5 567.333,1233.5 567.5,1245.5C 560.5,1245.5 553.5,1245.5 546.5,1245.5C 546.5,1222.5 546.5,1199.5 546.5,1176.5 Z"/></g>
<g><path style="opacity:0.925" fill="#000000" d="M 690.5,1176.5 C 698.5,1176.5 706.5,1176.5 714.5,1176.5C 714.5,1199.5 714.5,1222.5 714.5,1245.5C 706.5,1245.5 698.5,1245.5 690.5,1245.5C 690.5,1222.5 690.5,1199.5 690.5,1176.5 Z"/></g>
<g><path style="opacity:0.965" fill="#000000" d="M 890.5,1176.5 C 898.167,1176.5 905.833,1176.5 913.5,1176.5C 913.5,1199.5 913.5,1222.5 913.5,1245.5C 905.833,1245.5 898.167,1245.5 890.5,1245.5C 890.5,1222.5 890.5,1199.5 890.5,1176.5 Z"/></g>
<g><path style="opacity:0.951" fill="#000000" d="M 1227.5,1176.5 C 1235.17,1176.5 1242.83,1176.5 1250.5,1176.5C 1250.33,1184.84 1250.5,1193.17 1251,1201.5C 1258.47,1193.03 1266.3,1184.86 1274.5,1177C 1283.52,1176.17 1292.52,1176.33 1301.5,1177.5C 1292.68,1186.82 1283.68,1195.99 1274.5,1205C 1284.41,1218.16 1294.08,1231.49 1303.5,1245C 1293.82,1245.83 1284.15,1245.67 1274.5,1244.5C 1269.52,1236.86 1264.19,1229.53 1258.5,1222.5C 1255.85,1224.65 1253.35,1226.98 1251,1229.5C 1250.5,1234.82 1250.33,1240.16 1250.5,1245.5C 1242.83,1245.5 1235.17,1245.5 1227.5,1245.5C 1227.5,1222.5 1227.5,1199.5 1227.5,1176.5 Z"/></g>
<g><path style="opacity:0.965" fill="#000000" d="M 1356.5,1176.5 C 1364.17,1176.5 1371.83,1176.5 1379.5,1176.5C 1379.5,1199.5 1379.5,1222.5 1379.5,1245.5C 1371.83,1245.5 1364.17,1245.5 1356.5,1245.5C 1356.5,1222.5 1356.5,1199.5 1356.5,1176.5 Z"/></g>
<g><path style="opacity:0.95" fill="#000000" d="M 1438.5,1176.5 C 1454.55,1176.08 1470.55,1176.58 1486.5,1178C 1503.06,1184.63 1508.22,1196.46 1502,1213.5C 1498.26,1219.9 1492.76,1224.07 1485.5,1226C 1477.56,1227.32 1469.56,1227.82 1461.5,1227.5C 1461.5,1233.5 1461.5,1239.5 1461.5,1245.5C 1453.83,1245.5 1446.17,1245.5 1438.5,1245.5C 1438.5,1222.5 1438.5,1199.5 1438.5,1176.5 Z M 1461.5,1193.5 C 1466.84,1193.33 1472.18,1193.5 1477.5,1194C 1484.23,1199.74 1483.9,1205.07 1476.5,1210C 1471.51,1210.5 1466.51,1210.67 1461.5,1210.5C 1461.5,1204.83 1461.5,1199.17 1461.5,1193.5 Z"/></g>
<g><path style="opacity:0.956" fill="#000000" d="M 1722.5,1243.5 C 1722.5,1244.17 1722.5,1244.83 1722.5,1245.5C 1713.14,1245.83 1703.81,1245.5 1694.5,1244.5C 1689.19,1236.69 1683.69,1229.03 1678,1221.5C 1675.67,1223.83 1673.33,1226.17 1671,1228.5C 1670.5,1234.16 1670.33,1239.82 1670.5,1245.5C 1662.83,1245.5 1655.17,1245.5 1647.5,1245.5C 1647.5,1222.5 1647.5,1199.5 1647.5,1176.5C 1655.17,1176.5 1662.83,1176.5 1670.5,1176.5C 1670.33,1184.84 1670.5,1193.17 1671,1201.5C 1678.47,1193.03 1686.3,1184.86 1694.5,1177C 1703.5,1176.33 1712.5,1176.33 1721.5,1177C 1712.86,1186.64 1703.86,1195.97 1694.5,1205C 1703.73,1217.99 1713.07,1230.82 1722.5,1243.5 Z"/></g>
<g><path style="opacity:0.859" fill="#000000" d="M 1558.5,1208.5 C 1568.5,1208.5 1578.5,1208.5 1588.5,1208.5C 1588.5,1213.17 1588.5,1217.83 1588.5,1222.5C 1578.5,1222.5 1568.5,1222.5 1558.5,1222.5C 1558.5,1217.83 1558.5,1213.17 1558.5,1208.5 Z"/></g>
</svg>
