<?xml version="1.0" encoding="UTF-8"?>
<!DOCTYPE svg PUBLIC "-//W3C//DTD SVG 1.1//EN" "http://www.w3.org/Graphics/SVG/1.1/DTD/svg11.dtd">
<svg xmlns="http://www.w3.org/2000/svg" version="1.1" width="1561px" height="1494px" style="shape-rendering:geometricPrecision; text-rendering:geometricPrecision; image-rendering:optimizeQuality; fill-rule:evenodd; clip-rule:evenodd" xmlns:xlink="http://www.w3.org/1999/xlink">
<g><path style="opacity:0.983" fill="#f6d16c" d="M 775.5,-0.5 C 778.5,-0.5 781.5,-0.5 784.5,-0.5C 788.4,1.1227 792.067,3.28937 795.5,6C 817.368,27.7014 839.035,49.5347 860.5,71.5C 806.832,71.6926 753.166,72.0259 699.5,72.5C 722.298,49.2014 745.298,26.0347 768.5,3C 770.925,1.78739 773.259,0.620727 775.5,-0.5 Z"/></g>
<g><path style="opacity:0.992" fill="#f4cf69" d="M 860.5,71.5 C 870.167,80.5 879.5,89.8333 888.5,99.5C 816.171,100.385 743.838,100.718 671.5,100.5C 680.5,90.8333 689.833,81.5 699.5,72.5C 753.166,72.0259 806.832,71.6926 860.5,71.5 Z"/></g>
<g><path style="opacity:0.989" fill="#f4cd67" d="M 888.5,99.5 C 898.5,108.833 908.167,118.5 917.5,128.5C 880.167,128.5 842.833,128.5 805.5,128.5C 800.702,124.203 796.035,119.703 791.5,115C 783.253,110.103 775.253,110.436 767.5,116C 763.298,120.37 758.964,124.537 754.5,128.5C 717.5,128.5 680.5,128.5 643.5,128.5C 652.5,118.833 661.833,109.5 671.5,100.5C 743.838,100.718 816.171,100.385 888.5,99.5 Z"/></g>
<g><path style="opacity:0.991" fill="#f2cb65" d="M 643.5,128.5 C 680.5,128.5 717.5,128.5 754.5,128.5C 735.833,147.833 716.833,166.833 697.5,185.5C 660.5,185.5 623.5,185.5 586.5,185.5C 605.167,166.167 624.167,147.167 643.5,128.5 Z"/></g>
<g><path style="opacity:0.985" fill="#f2cb65" d="M 805.5,128.5 C 842.833,128.5 880.167,128.5 917.5,128.5C 936.5,146.833 955.167,165.5 973.5,184.5C 936.167,184.5 898.833,184.5 861.5,184.5C 842.5,166.167 823.833,147.5 805.5,128.5 Z"/></g>
<g><path style="opacity:1" fill="#238761" d="M 768.5,143.5 C 769.097,143.735 769.43,144.235 769.5,145C 766.278,158.389 763.611,171.889 761.5,185.5C 758.655,197.698 755.989,210.031 753.5,222.5C 750.804,233.304 748.471,244.304 746.5,255.5C 745.019,263.532 743.352,271.532 741.5,279.5C 738.798,290.741 736.465,302.075 734.5,313.5C 733.343,316.273 732.676,319.273 732.5,322.5C 731.962,324.117 731.629,325.784 731.5,327.5C 700.514,338.409 669.681,349.743 639,361.5C 635.392,355.266 631.559,349.266 627.5,343.5C 622.735,335.626 617.735,327.959 612.5,320.5C 609.634,316.101 607.301,311.434 605.5,306.5C 659.5,251.833 713.833,197.5 768.5,143.5 Z"/></g>
<g><path style="opacity:1" fill="#33a87a" d="M 806.5,158.5 C 791.674,167.748 776.674,176.748 761.5,185.5C 763.611,171.889 766.278,158.389 769.5,145C 769.43,144.235 769.097,143.735 768.5,143.5C 775.936,138.368 783.603,138.201 791.5,143C 796.703,148.035 801.703,153.202 806.5,158.5 Z"/></g>
<g><path style="opacity:1" fill="#35ac7e" d="M 806.5,158.5 C 813.5,164.833 820.167,171.5 826.5,178.5C 802.673,193.918 778.339,208.584 753.5,222.5C 755.989,210.031 758.655,197.698 761.5,185.5C 776.674,176.748 791.674,167.748 806.5,158.5 Z"/></g>
<g><path style="opacity:1" fill="#37b081" d="M 826.5,178.5 C 832.167,183.5 837.5,188.833 842.5,194.5C 842.063,196.074 841.063,197.241 839.5,198C 809.167,216.167 778.833,234.333 748.5,252.5C 747.824,253.602 747.158,254.602 746.5,255.5C 748.471,244.304 750.804,233.304 753.5,222.5C 778.339,208.584 802.673,193.918 826.5,178.5 Z"/></g>
<g><path style="opacity:0.98" fill="#f0c861" d="M 861.5,184.5 C 898.833,184.5 936.167,184.5 973.5,184.5C 986.298,196.798 998.965,209.298 1011.5,222C 1115.5,222.333 1219.5,222.667 1323.5,223C 1326.45,223.806 1329.11,225.139 1331.5,227C 1332.82,227.816 1333.49,228.983 1333.5,230.5C 1191.83,231.005 1050.17,231.339 908.5,231.5C 892.5,216.167 876.833,200.5 861.5,184.5 Z"/></g>
<g><path style="opacity:0.985" fill="#f0c861" d="M 586.5,185.5 C 623.5,185.5 660.5,185.5 697.5,185.5C 682.167,201.5 666.5,217.167 650.5,232.5C 508.501,233.232 366.501,233.566 224.5,233.5C 227.074,228.43 231.074,224.93 236.5,223C 340.833,222.667 445.167,222.333 549.5,222C 561.702,209.631 574.035,197.465 586.5,185.5 Z"/></g>
<g><path style="opacity:1" fill="#39b484" d="M 842.5,194.5 C 847.167,198.5 851.5,202.833 855.5,207.5C 855.063,209.074 854.063,210.241 852.5,211C 816.167,232.833 779.833,254.667 743.5,276.5C 742.824,277.602 742.158,278.602 741.5,279.5C 743.352,271.532 745.019,263.532 746.5,255.5C 747.158,254.602 747.824,253.602 748.5,252.5C 778.833,234.333 809.167,216.167 839.5,198C 841.063,197.241 842.063,196.074 842.5,194.5 Z"/></g>
<g><path style="opacity:1" fill="#3bb787" d="M 855.5,207.5 C 862.5,213.833 869.167,220.5 875.5,227.5C 875.586,228.496 875.252,229.329 874.5,230C 827.943,258.108 781.277,285.941 734.5,313.5C 736.465,302.075 738.798,290.741 741.5,279.5C 742.158,278.602 742.824,277.602 743.5,276.5C 779.833,254.667 816.167,232.833 852.5,211C 854.063,210.241 855.063,209.074 855.5,207.5 Z"/></g>
<g><path style="opacity:1" fill="#3cba89" d="M 875.5,227.5 C 877.5,228.833 879.167,230.5 880.5,232.5C 831.905,263.476 782.571,293.476 732.5,322.5C 732.676,319.273 733.343,316.273 734.5,313.5C 781.277,285.941 827.943,258.108 874.5,230C 875.252,229.329 875.586,228.496 875.5,227.5 Z"/></g>
<g><path style="opacity:0.998" fill="#efc65f" d="M 1333.5,230.5 C 1335.41,231.975 1336.58,233.975 1337,236.5C 1337.5,250.829 1337.67,265.163 1337.5,279.5C 1211.17,280.16 1084.83,280.827 958.5,281.5C 941.5,265.167 924.833,248.5 908.5,231.5C 1050.17,231.339 1191.83,231.005 1333.5,230.5 Z"/></g>
<g><path style="opacity:0.998" fill="#efc65f" d="M 650.5,232.5 C 634.167,249.5 617.5,266.167 600.5,282.5C 474.499,282.577 348.499,282.91 222.5,283.5C 222.333,267.83 222.5,252.163 223,236.5C 223.232,235.263 223.732,234.263 224.5,233.5C 366.501,233.566 508.501,233.232 650.5,232.5 Z"/></g>
<g><path style="opacity:1" fill="#3dbc8b" d="M 880.5,232.5 C 884.5,235.833 888.167,239.5 891.5,243.5C 840.368,275.573 788.702,306.906 736.5,337.5C 737.343,335.164 737.843,332.831 738,330.5C 735.297,333.371 732.464,336.038 729.5,338.5C 729.911,334.779 730.578,331.112 731.5,327.5C 731.629,325.784 731.962,324.117 732.5,322.5C 782.571,293.476 831.905,263.476 880.5,232.5 Z"/></g>
<g><path style="opacity:1" fill="#3fbf8d" d="M 891.5,243.5 C 896.5,247.833 901.167,252.5 905.5,257.5C 847.869,293.321 789.869,328.654 731.5,363.5C 731.461,354.385 733.127,345.719 736.5,337.5C 788.702,306.906 840.368,275.573 891.5,243.5 Z"/></g>
<g><path style="opacity:1" fill="#41c490" d="M 905.5,257.5 C 907.5,258.833 909.167,260.5 910.5,262.5C 879.209,292.824 847.876,323.158 816.5,353.5C 814.692,353.491 813.025,353.991 811.5,355C 786.277,370.441 760.944,385.608 735.5,400.5C 731.517,388.321 730.183,375.987 731.5,363.5C 789.869,328.654 847.869,293.321 905.5,257.5 Z"/></g>
<g><path style="opacity:1" fill="#4be4a4" d="M 910.5,262.5 C 920.833,272.167 930.833,282.167 940.5,292.5C 939.71,293.794 938.71,294.961 937.5,296C 873.776,339.187 810.109,382.353 746.5,425.5C 745.89,424.609 745.557,423.609 745.5,422.5C 768.862,399.137 792.529,376.137 816.5,353.5C 847.876,323.158 879.209,292.824 910.5,262.5 Z"/></g>
<g><path style="opacity:0.99" fill="#eec45c" d="M 1337.5,279.5 C 1337.5,289.833 1337.5,300.167 1337.5,310.5C 1310.17,310.5 1282.83,310.5 1255.5,310.5C 1252.76,305.958 1248.76,303.125 1243.5,302C 1156.17,301.667 1068.83,301.333 981.5,301C 979.051,300.275 976.717,299.275 974.5,298C 968.964,292.631 963.63,287.131 958.5,281.5C 1084.83,280.827 1211.17,280.16 1337.5,279.5 Z"/></g>
<g><path style="opacity:0.988" fill="#eec45c" d="M 600.5,282.5 C 595.703,287.798 590.703,292.965 585.5,298C 583.283,299.275 580.949,300.275 578.5,301C 491.167,301.333 403.833,301.667 316.5,302C 310.136,303.873 305.469,307.706 302.5,313.5C 275.829,313.526 249.162,313.859 222.5,314.5C 222.5,304.167 222.5,293.833 222.5,283.5C 348.499,282.91 474.499,282.577 600.5,282.5 Z"/></g>
<g><path style="opacity:1" fill="#48e29f" d="M 940.5,292.5 C 947.833,299.167 954.833,306.167 961.5,313.5C 960.432,315.74 958.766,317.574 956.5,319C 896.513,359.138 837.179,399.971 778.5,441.5C 773.457,442.678 768.457,444.011 763.5,445.5C 756.895,439.617 751.228,432.95 746.5,425.5C 810.109,382.353 873.776,339.187 937.5,296C 938.71,294.961 939.71,293.794 940.5,292.5 Z"/></g>
<g><path style="opacity:1" fill="#269362" d="M 605.5,306.5 C 607.301,311.434 609.634,316.101 612.5,320.5C 611.85,320.196 611.183,319.863 610.5,319.5C 542.271,336.307 473.938,352.641 405.5,368.5C 406.259,363.57 407.592,358.903 409.5,354.5C 409.369,355.239 409.536,355.906 410,356.5C 457.41,344.773 504.91,333.273 552.5,322C 563.008,321.83 573.341,321.33 583.5,320.5C 586.625,320.135 589.625,319.302 592.5,318C 597.002,314.33 601.335,310.497 605.5,306.5 Z"/></g>
<g><path style="opacity:0.993" fill="#ecc25a" d="M 1255.5,310.5 C 1282.83,310.5 1310.17,310.5 1337.5,310.5C 1337.5,321.5 1337.5,332.5 1337.5,343.5C 1311.17,343.5 1284.83,343.5 1258.5,343.5C 1258.67,334.494 1258.5,325.494 1258,316.5C 1257.43,314.359 1256.59,312.359 1255.5,310.5 Z"/></g>
<g><path style="opacity:0.991" fill="#ecc25a" d="M 302.5,313.5 C 301.568,324.462 301.235,335.462 301.5,346.5C 275.161,346.458 248.827,346.791 222.5,347.5C 222.5,336.5 222.5,325.5 222.5,314.5C 249.162,313.859 275.829,313.526 302.5,313.5 Z"/></g>
<g><path style="opacity:1" fill="#46df9d" d="M 961.5,313.5 C 962.5,313.833 963.167,314.5 963.5,315.5C 962.745,318.053 962.078,320.72 961.5,323.5C 906.536,360.475 851.869,397.809 797.5,435.5C 791.369,437.876 785.036,439.876 778.5,441.5C 837.179,399.971 896.513,359.138 956.5,319C 958.766,317.574 960.432,315.74 961.5,313.5 Z"/></g>
<g><path style="opacity:1" fill="#249061" d="M 612.5,320.5 C 617.735,327.959 622.735,335.626 627.5,343.5C 550.529,361.961 473.529,380.294 396.5,398.5C 397.167,395.5 397.833,392.5 398.5,389.5C 400.636,382.426 402.969,375.426 405.5,368.5C 473.938,352.641 542.271,336.307 610.5,319.5C 611.183,319.863 611.85,320.196 612.5,320.5 Z"/></g>
<g><path style="opacity:1" fill="#14644b" d="M 337.5,321.5 C 337.833,321.5 338.167,321.5 338.5,321.5C 341.5,321.5 344.5,321.5 347.5,321.5C 345.261,326.407 342.594,331.074 339.5,335.5C 338.711,335.217 338.044,334.717 337.5,334C 338.517,332.951 338.684,331.784 338,330.5C 337.667,331.167 337.333,331.833 337,332.5C 335.634,330.63 334.467,328.63 333.5,326.5C 335.207,325.127 336.54,323.461 337.5,321.5 Z"/></g>
<g><path style="opacity:1" fill="#197152" d="M 347.5,321.5 C 359.5,321.5 371.5,321.5 383.5,321.5C 372.167,333.833 360.833,346.167 349.5,358.5C 345.99,351.328 342.657,343.995 339.5,336.5C 339.5,336.167 339.5,335.833 339.5,335.5C 342.594,331.074 345.261,326.407 347.5,321.5 Z"/></g>
<g><path style="opacity:1" fill="#196f51" d="M 383.5,321.5 C 391.167,321.5 398.833,321.5 406.5,321.5C 406.631,322.239 406.464,322.906 406,323.5C 391.104,338.307 376.437,353.307 362,368.5C 360.25,370.734 358.75,373.068 357.5,375.5C 354.597,370.023 351.93,364.357 349.5,358.5C 360.833,346.167 372.167,333.833 383.5,321.5 Z"/></g>
<g><path style="opacity:1" fill="#186c4f" d="M 406.5,321.5 C 410.5,321.5 414.5,321.5 418.5,321.5C 415.348,332.44 412.348,343.44 409.5,354.5C 407.592,358.903 406.259,363.57 405.5,368.5C 402.969,375.426 400.636,382.426 398.5,389.5C 389.735,396.927 382.068,405.261 375.5,414.5C 373.644,411.591 371.977,408.591 370.5,405.5C 366.167,395.5 361.833,385.5 357.5,375.5C 358.75,373.068 360.25,370.734 362,368.5C 376.437,353.307 391.104,338.307 406,323.5C 406.464,322.906 406.631,322.239 406.5,321.5 Z"/></g>
<g><path style="opacity:1" fill="#269462" d="M 338.5,321.5 C 419.998,320.501 501.665,320.167 583.5,320.5C 573.341,321.33 563.008,321.83 552.5,322C 504.91,333.273 457.41,344.773 410,356.5C 409.536,355.906 409.369,355.239 409.5,354.5C 412.348,343.44 415.348,332.44 418.5,321.5C 414.5,321.5 410.5,321.5 406.5,321.5C 398.833,321.5 391.167,321.5 383.5,321.5C 371.5,321.5 359.5,321.5 347.5,321.5C 344.5,321.5 341.5,321.5 338.5,321.5 Z"/></g>
<g><path style="opacity:1" fill="#43d197" d="M 1065.5,321.5 C 1107.17,321.5 1148.83,321.5 1190.5,321.5C 1190.04,324.221 1189.37,326.888 1188.5,329.5C 1155.05,337.387 1121.72,345.387 1088.5,353.5C 1087.83,352.833 1087.17,352.167 1086.5,351.5C 1081.86,344.198 1076.86,337.198 1071.5,330.5C 1069.5,327.5 1067.5,324.5 1065.5,321.5 Z"/></g>
<g><path style="opacity:1" fill="#36c184" d="M 976.5,320.5 C 1058.17,320.333 1139.83,320.5 1221.5,321C 1228.68,323.02 1233.35,327.52 1235.5,334.5C 1235.5,337.167 1235.5,339.833 1235.5,342.5C 1207.5,374.167 1179.5,405.833 1151.5,437.5C 1155.19,426.139 1158.85,414.805 1162.5,403.5C 1165.97,393.086 1169.64,382.753 1173.5,372.5C 1176.64,362.426 1179.97,352.426 1183.5,342.5C 1184.97,338.093 1186.64,333.76 1188.5,329.5C 1189.37,326.888 1190.04,324.221 1190.5,321.5C 1148.83,321.5 1107.17,321.5 1065.5,321.5C 1035.66,321.831 1006,321.498 976.5,320.5 Z"/></g>
<g><path style="opacity:1" fill="#45de9b" d="M 961.5,323.5 C 960.997,329.521 960.331,335.521 959.5,341.5C 959.567,342.959 959.234,344.292 958.5,345.5C 921.535,370.476 884.868,395.809 848.5,421.5C 831.624,426.569 814.624,431.236 797.5,435.5C 851.869,397.809 906.536,360.475 961.5,323.5 Z"/></g>
<g><path style="opacity:1" fill="#48dba2" d="M 963.5,315.5 C 965.595,316.412 967.595,317.579 969.5,319C 971.813,319.662 974.146,320.162 976.5,320.5C 1006,321.498 1035.66,321.831 1065.5,321.5C 1067.5,324.5 1069.5,327.5 1071.5,330.5C 1034.21,334.562 996.881,338.229 959.5,341.5C 960.331,335.521 960.997,329.521 961.5,323.5C 962.078,320.72 962.745,318.053 963.5,315.5 Z"/></g>
<g><path style="opacity:1" fill="#176d4d" d="M 337.5,321.5 C 336.54,323.461 335.207,325.127 333.5,326.5C 334.467,328.63 335.634,330.63 337,332.5C 337.333,331.833 337.667,331.167 338,330.5C 338.684,331.784 338.517,332.951 337.5,334C 338.044,334.717 338.711,335.217 339.5,335.5C 339.5,335.833 339.5,336.167 339.5,336.5C 334.5,354.5 329.5,372.5 324.5,390.5C 324.5,371.833 324.5,353.167 324.5,334.5C 326.5,327.833 330.833,323.5 337.5,321.5 Z"/></g>
<g><path style="opacity:1" fill="#238c60" d="M 731.5,327.5 C 730.578,331.112 729.911,334.779 729.5,338.5C 708.421,365.882 701.755,396.549 709.5,430.5C 707.608,440.854 705.608,451.187 703.5,461.5C 703.5,461.833 703.5,462.167 703.5,462.5C 703.167,462.5 702.833,462.5 702.5,462.5C 696.583,453.669 690.917,444.669 685.5,435.5C 677.416,422.33 669.083,409.33 660.5,396.5C 659.076,393.982 657.409,391.649 655.5,389.5C 585.881,406.488 516.214,423.321 446.5,440C 447.416,440.278 448.082,440.778 448.5,441.5C 428.867,439.558 409.201,437.892 389.5,436.5C 388.432,435.566 387.099,435.232 385.5,435.5C 388.593,422.898 392.26,410.564 396.5,398.5C 473.529,380.294 550.529,361.961 627.5,343.5C 631.559,349.266 635.392,355.266 639,361.5C 669.681,349.743 700.514,338.409 731.5,327.5 Z"/></g>
<g><path style="opacity:1" fill="#46d89e" d="M 1071.5,330.5 C 1076.86,337.198 1081.86,344.198 1086.5,351.5C 1085.31,352.777 1083.64,353.444 1081.5,353.5C 1039.85,357.699 998.179,361.699 956.5,365.5C 957.26,358.843 957.927,352.177 958.5,345.5C 959.234,344.292 959.567,342.959 959.5,341.5C 996.881,338.229 1034.21,334.562 1071.5,330.5 Z"/></g>
<g><path style="opacity:1" fill="#41cf94" d="M 1188.5,329.5 C 1186.64,333.76 1184.97,338.093 1183.5,342.5C 1154.2,349.293 1124.87,355.96 1095.5,362.5C 1092.82,359.81 1090.48,356.81 1088.5,353.5C 1121.72,345.387 1155.05,337.387 1188.5,329.5 Z"/></g>
<g><path style="opacity:0.938" fill="#1c7b4c" d="M 324.5,334.5 C 324.5,353.167 324.5,371.833 324.5,390.5C 324.85,392.626 324.85,394.959 324.5,397.5C 324.167,397.5 323.833,397.5 323.5,397.5C 323.169,376.327 323.503,355.327 324.5,334.5 Z"/></g>
<g><path style="opacity:1" fill="#3fcc91" d="M 1183.5,342.5 C 1179.97,352.426 1176.64,362.426 1173.5,372.5C 1152.83,376.833 1132.17,381.167 1111.5,385.5C 1107.5,380.167 1103.5,374.833 1099.5,369.5C 1097.9,367.302 1096.57,364.969 1095.5,362.5C 1124.87,355.96 1154.2,349.293 1183.5,342.5 Z"/></g>
<g><path style="opacity:0.994" fill="#ebc058" d="M 1258.5,343.5 C 1284.83,343.5 1311.17,343.5 1337.5,343.5C 1337.5,354.5 1337.5,365.5 1337.5,376.5C 1311.17,376.5 1284.83,376.5 1258.5,376.5C 1258.5,365.5 1258.5,354.5 1258.5,343.5 Z"/></g>
<g><path style="opacity:1" fill="#43dc97" d="M 958.5,345.5 C 957.927,352.177 957.26,358.843 956.5,365.5C 955.337,372.134 954.337,378.801 953.5,385.5C 953.552,387.903 953.219,390.236 952.5,392.5C 951.833,392.5 951.5,392.833 951.5,393.5C 917.13,402.676 882.797,412.009 848.5,421.5C 884.868,395.809 921.535,370.476 958.5,345.5 Z"/></g>
<g><path style="opacity:0.991" fill="#ebc058" d="M 301.5,346.5 C 301.5,357.5 301.5,368.5 301.5,379.5C 275.159,379.393 248.826,379.726 222.5,380.5C 222.5,369.5 222.5,358.5 222.5,347.5C 248.827,346.791 275.161,346.458 301.5,346.5 Z"/></g>
<g><path style="opacity:1" fill="#43c894" d="M 816.5,353.5 C 792.529,376.137 768.862,399.137 745.5,422.5C 740.571,415.97 737.238,408.637 735.5,400.5C 760.944,385.608 786.277,370.441 811.5,355C 813.025,353.991 814.692,353.491 816.5,353.5 Z"/></g>
<g><path style="opacity:1" fill="#43d59a" d="M 1086.5,351.5 C 1087.17,352.167 1087.83,352.833 1088.5,353.5C 1090.48,356.81 1092.82,359.81 1095.5,362.5C 1096.57,364.969 1097.9,367.302 1099.5,369.5C 1098.74,370.268 1097.74,370.768 1096.5,371C 1048.78,375.572 1001.11,380.405 953.5,385.5C 954.337,378.801 955.337,372.134 956.5,365.5C 998.179,361.699 1039.85,357.699 1081.5,353.5C 1083.64,353.444 1085.31,352.777 1086.5,351.5 Z"/></g>
<g><path style="opacity:1" fill="#1e7d56" d="M 339.5,336.5 C 342.657,343.995 345.99,351.328 349.5,358.5C 351.93,364.357 354.597,370.023 357.5,375.5C 361.833,385.5 366.167,395.5 370.5,405.5C 355.531,414.989 340.198,423.989 324.5,432.5C 324.5,420.833 324.5,409.167 324.5,397.5C 324.85,394.959 324.85,392.626 324.5,390.5C 329.5,372.5 334.5,354.5 339.5,336.5 Z"/></g>
<g><path style="opacity:1" fill="#41d397" d="M 1099.5,369.5 C 1103.5,374.833 1107.5,380.167 1111.5,385.5C 1111.5,385.833 1111.5,386.167 1111.5,386.5C 1069.07,391.743 1026.41,396.076 983.5,399.5C 973.496,397.499 963.496,395.499 953.5,393.5C 953.5,392.833 953.167,392.5 952.5,392.5C 953.219,390.236 953.552,387.903 953.5,385.5C 1001.11,380.405 1048.78,375.572 1096.5,371C 1097.74,370.768 1098.74,370.268 1099.5,369.5 Z"/></g>
<g><path style="opacity:1" fill="#3cc98d" d="M 1173.5,372.5 C 1169.64,382.753 1165.97,393.086 1162.5,403.5C 1151.47,405.675 1140.47,408.008 1129.5,410.5C 1126.45,407.455 1123.79,404.122 1121.5,400.5C 1118.52,395.531 1115.19,390.865 1111.5,386.5C 1111.5,386.167 1111.5,385.833 1111.5,385.5C 1132.17,381.167 1152.83,376.833 1173.5,372.5 Z"/></g>
<g><path style="opacity:0.994" fill="#e9bd55" d="M 1258.5,376.5 C 1284.83,376.5 1311.17,376.5 1337.5,376.5C 1337.5,403.167 1337.5,429.833 1337.5,456.5C 1311.17,456.5 1284.83,456.5 1258.5,456.5C 1258.5,429.833 1258.5,403.167 1258.5,376.5 Z"/></g>
<g><path style="opacity:0.991" fill="#e9bd55" d="M 301.5,379.5 C 301.5,406.167 301.5,432.833 301.5,459.5C 275.173,460.209 248.839,460.542 222.5,460.5C 222.5,433.833 222.5,407.167 222.5,380.5C 248.826,379.726 275.159,379.393 301.5,379.5 Z"/></g>
<g><path style="opacity:1" fill="#32b67c" d="M 1235.5,342.5 C 1235.5,360.833 1235.5,379.167 1235.5,397.5C 1208.46,412.688 1181.12,427.355 1153.5,441.5C 1152.61,440.89 1151.61,440.557 1150.5,440.5C 1150.5,440.167 1150.5,439.833 1150.5,439.5C 1150.83,438.833 1151.17,438.167 1151.5,437.5C 1179.5,405.833 1207.5,374.167 1235.5,342.5 Z"/></g>
<g><path style="opacity:1" fill="#3fd193" d="M 1111.5,386.5 C 1115.19,390.865 1118.52,395.531 1121.5,400.5C 1121.08,401.222 1120.42,401.722 1119.5,402C 1089.85,405.098 1060.19,407.931 1030.5,410.5C 1014.55,407.593 998.879,403.927 983.5,399.5C 1026.41,396.076 1069.07,391.743 1111.5,386.5 Z"/></g>
<g><path style="opacity:1" fill="#17694d" d="M 398.5,389.5 C 397.833,392.5 397.167,395.5 396.5,398.5C 392.26,410.564 388.593,422.898 385.5,435.5C 385.167,435.5 384.833,435.5 384.5,435.5C 381.305,428.582 378.305,421.582 375.5,414.5C 382.068,405.261 389.735,396.927 398.5,389.5 Z"/></g>
<g><path style="opacity:1" fill="#22895e" d="M 660.5,396.5 C 597.185,411.662 533.852,426.829 470.5,442C 471.416,442.278 472.082,442.778 472.5,443.5C 464.538,442.503 456.538,441.837 448.5,441.5C 448.082,440.778 447.416,440.278 446.5,440C 516.214,423.321 585.881,406.488 655.5,389.5C 657.409,391.649 659.076,393.982 660.5,396.5 Z"/></g>
<g><path style="opacity:1" fill="#36c67e" d="M 951.5,393.5 C 933.138,413.526 914.805,433.526 896.5,453.5C 896.631,452.761 896.464,452.094 896,451.5C 863.206,475.025 828.039,479.192 790.5,464C 780.392,459.293 771.392,453.126 763.5,445.5C 768.457,444.011 773.457,442.678 778.5,441.5C 785.036,439.876 791.369,437.876 797.5,435.5C 814.624,431.236 831.624,426.569 848.5,421.5C 882.797,412.009 917.13,402.676 951.5,393.5 Z"/></g>
<g><path style="opacity:1" fill="#30b674" d="M 953.5,393.5 C 963.496,395.499 973.496,397.499 983.5,399.5C 998.879,403.927 1014.55,407.593 1030.5,410.5C 1045.54,414.913 1060.88,418.579 1076.5,421.5C 1100.25,427.769 1124.25,433.436 1148.5,438.5C 1148.84,439.338 1149.51,439.672 1150.5,439.5C 1150.5,439.833 1150.5,440.167 1150.5,440.5C 1150.5,441.167 1150.5,441.833 1150.5,442.5C 1148.26,456.055 1146.6,469.721 1145.5,483.5C 1138.59,536.46 1131.92,589.46 1125.5,642.5C 1122.34,666.456 1119.34,690.456 1116.5,714.5C 1116.41,716.333 1115.75,717.666 1114.5,718.5C 1113.51,718.672 1112.84,718.338 1112.5,717.5C 1113.38,717.631 1114.04,717.298 1114.5,716.5C 1110.83,709.167 1107.17,701.833 1103.5,694.5C 1101.17,694.167 1098.83,693.833 1096.5,693.5C 1087.33,693.938 1078.33,694.605 1069.5,695.5C 1029.7,675.769 990.038,655.769 950.5,635.5C 945.167,632.833 939.833,630.167 934.5,627.5C 937.258,626.182 940.424,625.515 944,625.5C 984.838,623.416 1025.67,621.25 1066.5,619C 1054.28,594.725 1041.95,570.559 1029.5,546.5C 1017.74,522.643 1005.74,498.977 993.5,475.5C 980.167,448.167 966.833,420.833 953.5,393.5 Z"/></g>
<g><path style="opacity:1" fill="#21865c" d="M 660.5,396.5 C 669.083,409.33 677.416,422.33 685.5,435.5C 660.017,441.592 634.684,447.926 609.5,454.5C 603.171,454.1 596.838,453.767 590.5,453.5C 551.216,449.837 511.883,446.504 472.5,443.5C 472.082,442.778 471.416,442.278 470.5,442C 533.852,426.829 597.185,411.662 660.5,396.5 Z"/></g>
<g><path style="opacity:0.937" fill="#228753" d="M 323.5,397.5 C 323.833,397.5 324.167,397.5 324.5,397.5C 324.5,409.167 324.5,420.833 324.5,432.5C 324.172,444.678 324.505,456.678 325.5,468.5C 325.158,469.338 324.492,469.672 323.5,469.5C 323.5,445.5 323.5,421.5 323.5,397.5 Z"/></g>
<g><path style="opacity:1" fill="#3dce91" d="M 1121.5,400.5 C 1123.79,404.122 1126.45,407.455 1129.5,410.5C 1130.25,412.332 1131.25,413.999 1132.5,415.5C 1114.03,418.03 1095.37,420.03 1076.5,421.5C 1060.88,418.579 1045.54,414.913 1030.5,410.5C 1060.19,407.931 1089.85,405.098 1119.5,402C 1120.42,401.722 1121.08,401.222 1121.5,400.5 Z"/></g>
<g><path style="opacity:1" fill="#2bad6c" d="M 952.5,392.5 C 953.167,392.5 953.5,392.833 953.5,393.5C 966.833,420.833 980.167,448.167 993.5,475.5C 991.369,476.314 989.036,476.814 986.5,477C 951.664,478.783 916.831,480.617 882,482.5C 878.979,482.498 876.146,482.164 873.5,481.5C 882.133,472.863 889.8,463.529 896.5,453.5C 914.805,433.526 933.138,413.526 951.5,393.5C 951.5,392.833 951.833,392.5 952.5,392.5 Z"/></g>
<g><path style="opacity:1" fill="#1d7b54" d="M 370.5,405.5 C 371.977,408.591 373.644,411.591 375.5,414.5C 378.305,421.582 381.305,428.582 384.5,435.5C 377.833,439.5 371.167,443.5 364.5,447.5C 351.368,454.233 338.368,461.233 325.5,468.5C 324.505,456.678 324.172,444.678 324.5,432.5C 340.198,423.989 355.531,414.989 370.5,405.5 Z"/></g>
<g><path style="opacity:1" fill="#31b47a" d="M 1235.5,397.5 C 1235.5,433.833 1235.5,470.167 1235.5,506.5C 1230.45,502.115 1225.12,498.115 1219.5,494.5C 1197.5,476.833 1175.5,459.167 1153.5,441.5C 1181.12,427.355 1208.46,412.688 1235.5,397.5 Z"/></g>
<g><path style="opacity:1" fill="#3bcc8d" d="M 1132.5,415.5 C 1138.07,422.955 1143.4,430.621 1148.5,438.5C 1124.25,433.436 1100.25,427.769 1076.5,421.5C 1095.37,420.03 1114.03,418.03 1132.5,415.5 Z"/></g>
<g><path style="opacity:1" fill="#39c588" d="M 1162.5,403.5 C 1158.85,414.805 1155.19,426.139 1151.5,437.5C 1151.17,438.167 1150.83,438.833 1150.5,439.5C 1149.51,439.672 1148.84,439.338 1148.5,438.5C 1143.4,430.621 1138.07,422.955 1132.5,415.5C 1131.25,413.999 1130.25,412.332 1129.5,410.5C 1140.47,408.008 1151.47,405.675 1162.5,403.5 Z"/></g>
<g><path style="opacity:1" fill="#44c993" d="M 709.5,430.5 C 711.812,436.424 714.146,442.424 716.5,448.5C 712.548,453.119 708.215,457.452 703.5,461.5C 705.608,451.187 707.608,440.854 709.5,430.5 Z"/></g>
<g><path style="opacity:1" fill="#20825a" d="M 685.5,435.5 C 690.917,444.669 696.583,453.669 702.5,462.5C 671.466,460.108 640.466,457.442 609.5,454.5C 634.684,447.926 660.017,441.592 685.5,435.5 Z"/></g>
<g><path style="opacity:1" fill="#228f5b" d="M 384.5,435.5 C 384.833,435.5 385.167,435.5 385.5,435.5C 387.099,435.232 388.432,435.566 389.5,436.5C 386.001,436.259 385.668,437.092 388.5,439C 396.602,444.706 404.269,450.872 411.5,457.5C 395.913,455.029 380.247,451.696 364.5,447.5C 371.167,443.5 377.833,439.5 384.5,435.5 Z"/></g>
<g><path style="opacity:1" fill="#31b770" d="M 389.5,436.5 C 409.201,437.892 428.867,439.558 448.5,441.5C 456.538,441.837 464.538,442.503 472.5,443.5C 511.883,446.504 551.216,449.837 590.5,453.5C 531.672,455.601 472.672,457.268 413.5,458.5C 412.833,458.167 412.167,457.833 411.5,457.5C 404.269,450.872 396.602,444.706 388.5,439C 385.668,437.092 386.001,436.259 389.5,436.5 Z"/></g>
<g><path style="opacity:1" fill="#2daf74" d="M 1150.5,440.5 C 1151.61,440.557 1152.61,440.89 1153.5,441.5C 1175.5,459.167 1197.5,476.833 1219.5,494.5C 1205.83,494.5 1192.17,494.5 1178.5,494.5C 1174.66,486.146 1170.33,478.146 1165.5,470.5C 1161.51,460.523 1156.51,451.189 1150.5,442.5C 1150.5,441.833 1150.5,441.167 1150.5,440.5 Z"/></g>
<g><path style="opacity:1" fill="#2aae71" d="M 1150.5,442.5 C 1156.51,451.189 1161.51,460.523 1165.5,470.5C 1159.21,475.318 1152.54,479.651 1145.5,483.5C 1146.6,469.721 1148.26,456.055 1150.5,442.5 Z"/></g>
<g><path style="opacity:1" fill="#21915c" d="M 364.5,447.5 C 380.247,451.696 395.913,455.029 411.5,457.5C 412.167,457.833 412.833,458.167 413.5,458.5C 422.208,465.875 431.208,472.875 440.5,479.5C 467.187,501.516 494.187,523.183 521.5,544.5C 537.142,557.136 552.809,569.803 568.5,582.5C 567.749,583.573 566.749,583.74 565.5,583C 508.884,561.341 453.217,539.841 398.5,518.5C 397.707,518.931 396.873,519.265 396,519.5C 373.765,513.23 351.598,507.897 329.5,503.5C 328.078,502.075 326.411,501.075 324.5,500.5C 325.165,490.46 324.831,480.46 323.5,470.5C 323.5,470.167 323.5,469.833 323.5,469.5C 324.492,469.672 325.158,469.338 325.5,468.5C 338.368,461.233 351.368,454.233 364.5,447.5 Z"/></g>
<g><path style="opacity:1" fill="#48e09e" d="M 716.5,448.5 C 718.071,450.635 719.404,452.968 720.5,455.5C 720.586,456.496 720.252,457.329 719.5,458C 714.062,459.203 708.729,460.703 703.5,462.5C 703.5,462.167 703.5,461.833 703.5,461.5C 708.215,457.452 712.548,453.119 716.5,448.5 Z"/></g>
<g><path style="opacity:1" fill="#30b66f" d="M 590.5,453.5 C 596.838,453.767 603.171,454.1 609.5,454.5C 640.466,457.442 671.466,460.108 702.5,462.5C 702.5,462.833 702.5,463.167 702.5,463.5C 698.5,467.167 694.5,470.833 690.5,474.5C 686.18,473.834 681.68,473.501 677,473.5C 598.174,475.842 519.34,477.842 440.5,479.5C 431.208,472.875 422.208,465.875 413.5,458.5C 472.672,457.268 531.672,455.601 590.5,453.5 Z"/></g>
<g><path style="opacity:1" fill="#32c277" d="M 702.5,463.5 C 712.78,472.112 722.447,481.445 731.5,491.5C 705.872,497.657 680.205,503.657 654.5,509.5C 666.5,497.833 678.5,486.167 690.5,474.5C 694.5,470.833 698.5,467.167 702.5,463.5 Z"/></g>
<g><path style="opacity:1" fill="#35c57d" d="M 720.5,455.5 C 735.024,478.335 755.357,493.668 781.5,501.5C 781.833,503.333 782.167,505.167 782.5,507C 781.735,517.165 781.069,527.332 780.5,537.5C 769.52,527.522 758.52,517.522 747.5,507.5C 742.5,501.833 737.167,496.5 731.5,491.5C 722.447,481.445 712.78,472.112 702.5,463.5C 702.5,463.167 702.5,462.833 702.5,462.5C 702.833,462.5 703.167,462.5 703.5,462.5C 708.729,460.703 714.062,459.203 719.5,458C 720.252,457.329 720.586,456.496 720.5,455.5 Z"/></g>
<g><path style="opacity:1" fill="#29aa6d" d="M 1235.5,334.5 C 1236.33,416.999 1236.83,499.666 1237,582.5C 1237.5,584.518 1238,586.518 1238.5,588.5C 1234.33,587.197 1230.17,587.197 1226,588.5C 1225.17,586.833 1224.33,585.167 1223.5,583.5C 1222.64,582.417 1221.64,582.251 1220.5,583C 1189.11,603.356 1157.45,623.189 1125.5,642.5C 1131.92,589.46 1138.59,536.46 1145.5,483.5C 1152.54,479.651 1159.21,475.318 1165.5,470.5C 1170.33,478.146 1174.66,486.146 1178.5,494.5C 1189.15,515.14 1199.82,535.807 1210.5,556.5C 1218.81,557.498 1227.14,557.831 1235.5,557.5C 1235.5,540.5 1235.5,523.5 1235.5,506.5C 1235.5,470.167 1235.5,433.833 1235.5,397.5C 1235.5,379.167 1235.5,360.833 1235.5,342.5C 1235.5,339.833 1235.5,337.167 1235.5,334.5 Z"/></g>
<g><path style="opacity:1" fill="#2fb26d" d="M 690.5,474.5 C 678.5,486.167 666.5,497.833 654.5,509.5C 644.84,517.827 635.506,526.494 626.5,535.5C 623.5,538.167 620.5,540.833 617.5,543.5C 612.177,542.834 606.677,542.501 601,542.5C 574.501,543.295 548.001,543.962 521.5,544.5C 494.187,523.183 467.187,501.516 440.5,479.5C 519.34,477.842 598.174,475.842 677,473.5C 681.68,473.501 686.18,473.834 690.5,474.5 Z"/></g>
<g><path style="opacity:0.994" fill="#e8ba51" d="M 1258.5,456.5 C 1284.83,456.5 1311.17,456.5 1337.5,456.5C 1337.5,468.167 1337.5,479.833 1337.5,491.5C 1311.18,492.317 1284.84,492.65 1258.5,492.5C 1258.5,480.5 1258.5,468.5 1258.5,456.5 Z"/></g>
<g><path style="opacity:1" fill="#2cb06f" d="M 993.5,475.5 C 1005.74,498.977 1017.74,522.643 1029.5,546.5C 1029.08,547.222 1028.42,547.722 1027.5,548C 952.314,551.667 877.314,555.834 802.5,560.5C 801.833,560.167 801.167,559.833 800.5,559.5C 822.167,535.5 843.833,511.5 865.5,487.5C 867.8,485.016 870.467,483.016 873.5,481.5C 876.146,482.164 878.979,482.498 882,482.5C 916.831,480.617 951.664,478.783 986.5,477C 989.036,476.814 991.369,476.314 993.5,475.5 Z"/></g>
<g><path style="opacity:0.991" fill="#e8ba51" d="M 301.5,459.5 C 301.5,471.5 301.5,483.5 301.5,495.5C 275.167,495.5 248.833,495.5 222.5,495.5C 222.5,483.833 222.5,472.167 222.5,460.5C 248.839,460.542 275.173,460.209 301.5,459.5 Z"/></g>
<g><path style="opacity:1" fill="#34c47c" d="M 865.5,487.5 C 843.833,511.5 822.167,535.5 800.5,559.5C 798.265,559.795 796.265,559.461 794.5,558.5C 793.93,554.761 791.764,552.428 788,551.5C 787.345,535.459 786.512,519.459 785.5,503.5C 814.162,508.278 840.828,502.944 865.5,487.5 Z"/></g>
<g><path style="opacity:0.99" fill="#e6b74d" d="M 1337.5,491.5 C 1337.07,510.214 1337.57,528.88 1339,547.5C 1339.67,548.833 1340.33,550.167 1341,551.5C 1347.7,558.035 1354.2,564.702 1360.5,571.5C 1326.52,572.465 1292.52,572.799 1258.5,572.5C 1258.5,545.833 1258.5,519.167 1258.5,492.5C 1284.84,492.65 1311.18,492.317 1337.5,491.5 Z"/></g>
<g><path style="opacity:1" fill="#2cac72" d="M 1178.5,494.5 C 1192.17,494.5 1205.83,494.5 1219.5,494.5C 1225.12,498.115 1230.45,502.115 1235.5,506.5C 1235.5,523.5 1235.5,540.5 1235.5,557.5C 1227.14,557.831 1218.81,557.498 1210.5,556.5C 1199.82,535.807 1189.15,515.14 1178.5,494.5 Z"/></g>
<g><path style="opacity:0.99" fill="#e6b74d" d="M 222.5,495.5 C 248.833,495.5 275.167,495.5 301.5,495.5C 301.5,522.167 301.5,548.833 301.5,575.5C 266.5,575.5 231.5,575.5 196.5,575.5C 203.131,568.368 209.964,561.368 217,554.5C 218.586,552.33 219.92,549.996 221,547.5C 222.444,530.223 222.944,512.889 222.5,495.5 Z"/></g>
<g><path style="opacity:1" fill="#32c076" d="M 731.5,491.5 C 737.167,496.5 742.5,501.833 747.5,507.5C 707.909,517.314 668.243,526.981 628.5,536.5C 627.584,536.457 626.917,536.124 626.5,535.5C 635.506,526.494 644.84,517.827 654.5,509.5C 680.205,503.657 705.872,497.657 731.5,491.5 Z"/></g>
<g><path style="opacity:1" fill="#1f8853" d="M 324.5,500.5 C 326.411,501.075 328.078,502.075 329.5,503.5C 345.167,515.5 360.833,527.5 376.5,539.5C 377.167,539.5 377.5,539.833 377.5,540.5C 361.758,544.449 345.758,547.783 329.5,550.5C 327.462,546.739 325.796,542.739 324.5,538.5C 324.5,525.833 324.5,513.167 324.5,500.5 Z"/></g>
<g><path style="opacity:1" fill="#22975c" d="M 329.5,503.5 C 351.598,507.897 373.765,513.23 396,519.5C 396.873,519.265 397.707,518.931 398.5,518.5C 453.217,539.841 508.884,561.341 565.5,583C 566.749,583.74 567.749,583.573 568.5,582.5C 569.833,583.5 571.167,584.5 572.5,585.5C 572.38,586.586 571.713,587.253 570.5,587.5C 506.5,571.167 442.5,554.833 378.5,538.5C 377.584,538.543 376.917,538.876 376.5,539.5C 360.833,527.5 345.167,515.5 329.5,503.5 Z"/></g>
<g><path style="opacity:1" fill="#30be74" d="M 747.5,507.5 C 758.52,517.522 769.52,527.522 780.5,537.5C 780.331,542.181 779.998,546.848 779.5,551.5C 774.303,551.857 771.803,554.524 772,559.5C 773.652,560.399 775.152,561.399 776.5,562.5C 709.936,569.544 643.436,577.211 577,585.5C 575.93,585.472 575.097,585.139 574.5,584.5C 589.163,571.171 603.496,557.504 617.5,543.5C 620.5,540.833 623.5,538.167 626.5,535.5C 626.917,536.124 627.584,536.457 628.5,536.5C 668.243,526.981 707.909,517.314 747.5,507.5 Z"/></g>
<g><path style="opacity:0.937" fill="#249253" d="M 323.5,470.5 C 324.831,480.46 325.165,490.46 324.5,500.5C 324.5,513.167 324.5,525.833 324.5,538.5C 324.167,538.5 323.833,538.5 323.5,538.5C 323.5,515.833 323.5,493.167 323.5,470.5 Z"/></g>
<g><path style="opacity:1" fill="#239a5e" d="M 376.5,539.5 C 376.917,538.876 377.584,538.543 378.5,538.5C 442.5,554.833 506.5,571.167 570.5,587.5C 571.713,587.253 572.38,586.586 572.5,585.5C 572.833,585.5 573.167,585.5 573.5,585.5C 575.206,595.238 577.206,604.905 579.5,614.5C 528.345,602.21 477.012,589.21 425.5,575.5C 424.893,575.624 424.56,575.957 424.5,576.5C 408.833,564.5 393.167,552.5 377.5,540.5C 377.5,539.833 377.167,539.5 376.5,539.5 Z"/></g>
<g><path style="opacity:1" fill="#208c54" d="M 377.5,540.5 C 393.167,552.5 408.833,564.5 424.5,576.5C 436.386,585.269 448.053,594.269 459.5,603.5C 427.388,610.412 395.054,616.912 362.5,623C 360.563,623.122 359.23,623.955 358.5,625.5C 348.383,600.702 338.717,575.702 329.5,550.5C 345.758,547.783 361.758,544.449 377.5,540.5 Z"/></g>
<g><path style="opacity:1" fill="#19814a" d="M 323.5,538.5 C 323.833,538.5 324.167,538.5 324.5,538.5C 325.796,542.739 327.462,546.739 329.5,550.5C 338.717,575.702 348.383,600.702 358.5,625.5C 367.238,649.71 376.571,673.71 386.5,697.5C 391.784,711.067 396.784,724.734 401.5,738.5C 324.069,742.672 246.569,746.672 169,750.5C 166.639,750.496 164.473,750.163 162.5,749.5C 214.132,697.368 265.965,645.368 318,593.5C 320.194,590.446 321.861,587.112 323,583.5C 323.5,568.504 323.667,553.504 323.5,538.5 Z"/></g>
<g><path style="opacity:1" fill="#2dac69" d="M 617.5,543.5 C 603.496,557.504 589.163,571.171 574.5,584.5C 573.833,584.5 573.5,584.833 573.5,585.5C 573.167,585.5 572.833,585.5 572.5,585.5C 571.167,584.5 569.833,583.5 568.5,582.5C 552.809,569.803 537.142,557.136 521.5,544.5C 548.001,543.962 574.501,543.295 601,542.5C 606.677,542.501 612.177,542.834 617.5,543.5 Z"/></g>
<g><path style="opacity:1" fill="#2db371" d="M 1029.5,546.5 C 1041.95,570.559 1054.28,594.725 1066.5,619C 1025.67,621.25 984.838,623.416 944,625.5C 940.424,625.515 937.258,626.182 934.5,627.5C 890.5,605.167 846.5,582.833 802.5,560.5C 877.314,555.834 952.314,551.667 1027.5,548C 1028.42,547.722 1029.08,547.222 1029.5,546.5 Z"/></g>
<g><path style="opacity:1" fill="#2cae64" d="M 794.5,558.5 C 796.265,559.461 798.265,559.795 800.5,559.5C 797.165,562.601 793.665,565.601 790,568.5C 789.501,574.157 789.334,579.824 789.5,585.5C 788.344,578.011 788.178,570.345 789,562.5C 790.992,561.335 792.825,560.002 794.5,558.5 Z"/></g>
<g><path style="opacity:1" fill="#29a260" d="M 800.5,559.5 C 801.167,559.833 801.833,560.167 802.5,560.5C 846.5,582.833 890.5,605.167 934.5,627.5C 939.833,630.167 945.167,632.833 950.5,635.5C 899.067,643.222 847.4,650.222 795.5,656.5C 792.084,652.007 789.417,647.007 787.5,641.5C 795.346,640.16 802.18,636.826 808,631.5C 810.618,626.054 809.451,621.554 804.5,618C 799.893,615.027 794.893,613.193 789.5,612.5C 789.5,603.5 789.5,594.5 789.5,585.5C 789.334,579.824 789.501,574.157 790,568.5C 793.665,565.601 797.165,562.601 800.5,559.5 Z"/></g>
<g><path style="opacity:1" fill="#2aaf69" d="M 776.5,562.5 C 777.814,564.915 778.481,567.748 778.5,571C 778.498,574.021 778.164,576.854 777.5,579.5C 777.565,579.062 777.399,578.728 777,578.5C 761.894,590.629 746.727,602.629 731.5,614.5C 685.765,632.634 640.099,650.968 594.5,669.5C 593.193,666.275 592.193,662.941 591.5,659.5C 590.146,652.995 588.479,646.662 586.5,640.5C 584.454,631.642 582.121,622.976 579.5,614.5C 577.206,604.905 575.206,595.238 573.5,585.5C 573.5,584.833 573.833,584.5 574.5,584.5C 575.097,585.139 575.93,585.472 577,585.5C 643.436,577.211 709.936,569.544 776.5,562.5 Z"/></g>
<g><path style="opacity:0.984" fill="#e4b54a" d="M 1360.5,571.5 C 1365.83,576.167 1370.83,581.167 1375.5,586.5C 1338.17,586.5 1300.83,586.5 1263.5,586.5C 1260.01,582.601 1258.35,577.934 1258.5,572.5C 1292.52,572.799 1326.52,572.465 1360.5,571.5 Z"/></g>
<g><path style="opacity:0.991" fill="#e4b54a" d="M 196.5,575.5 C 231.5,575.5 266.5,575.5 301.5,575.5C 300.885,581.404 298.218,586.071 293.5,589.5C 256.5,589.5 219.5,589.5 182.5,589.5C 186.833,584.5 191.5,579.833 196.5,575.5 Z"/></g>
<g><path style="opacity:1" fill="#249e5f" d="M 424.5,576.5 C 424.56,575.957 424.893,575.624 425.5,575.5C 477.012,589.21 528.345,602.21 579.5,614.5C 582.121,622.976 584.454,631.642 586.5,640.5C 586.631,641.239 586.464,641.906 586,642.5C 548.659,632.29 511.159,622.623 473.5,613.5C 468.833,610.167 464.167,606.833 459.5,603.5C 448.053,594.269 436.386,585.269 424.5,576.5 Z"/></g>
<g><path style="opacity:0.985" fill="#e2b247" d="M 1263.5,586.5 C 1300.83,586.5 1338.17,586.5 1375.5,586.5C 1407.83,618.167 1439.83,650.167 1471.5,682.5C 1434.17,682.5 1396.83,682.5 1359.5,682.5C 1327.17,650.833 1295.17,618.833 1263.5,586.5 Z"/></g>
<g><path style="opacity:0.991" fill="#e2b247" d="M 182.5,589.5 C 219.5,589.5 256.5,589.5 293.5,589.5C 261.5,622.167 229.167,654.5 196.5,686.5C 159.5,686.5 122.5,686.5 85.5,686.5C 117.5,653.833 149.833,621.5 182.5,589.5 Z"/></g>
<g><path style="opacity:1" fill="#279d64" d="M 1239.5,590.5 C 1268.81,620.14 1298.14,649.806 1327.5,679.5C 1326.76,679.369 1326.09,679.536 1325.5,680C 1322.97,683.358 1320.3,686.524 1317.5,689.5C 1315.33,688.834 1314.99,687.667 1316.5,686C 1315.9,683.476 1315.23,680.976 1314.5,678.5C 1311.9,677.969 1309.23,677.802 1306.5,678C 1280.92,650.256 1255.25,622.756 1229.5,595.5C 1231.65,593.53 1233.98,591.697 1236.5,590C 1237.58,589.53 1238.58,589.697 1239.5,590.5 Z"/></g>
<g><path style="opacity:1" fill="#27a461" d="M 777.5,579.5 C 777.128,590.499 776.794,601.499 776.5,612.5C 768.105,612.944 761.605,616.611 757,623.5C 755.837,628.345 757.337,632.179 761.5,635C 767.146,638.049 773.146,640.216 779.5,641.5C 772.803,658.256 763.137,672.922 750.5,685.5C 752.993,678.857 755.16,672.19 757,665.5C 720.833,690.333 684.667,715.167 648.5,740C 646.559,741.903 644.226,742.736 641.5,742.5C 629.614,733.731 617.947,724.731 606.5,715.5C 647.984,681.594 689.65,647.927 731.5,614.5C 746.727,602.629 761.894,590.629 777,578.5C 777.399,578.728 777.565,579.062 777.5,579.5 Z"/></g>
<g><path style="opacity:1" fill="#28a76a" d="M 1238.5,588.5 C 1239.34,588.842 1239.67,589.508 1239.5,590.5C 1238.58,589.697 1237.58,589.53 1236.5,590C 1233.98,591.697 1231.65,593.53 1229.5,595.5C 1192.2,636.474 1154.86,677.474 1117.5,718.5C 1117.16,719.338 1116.49,719.672 1115.5,719.5C 1115.17,719.5 1114.83,719.5 1114.5,719.5C 1114.5,719.167 1114.5,718.833 1114.5,718.5C 1115.75,717.666 1116.41,716.333 1116.5,714.5C 1119.34,690.456 1122.34,666.456 1125.5,642.5C 1157.45,623.189 1189.11,603.356 1220.5,583C 1221.64,582.251 1222.64,582.417 1223.5,583.5C 1224.33,585.167 1225.17,586.833 1226,588.5C 1230.17,587.197 1234.33,587.197 1238.5,588.5 Z"/></g>
<g><path style="opacity:1" fill="#239b61" d="M 1229.5,595.5 C 1255.25,622.756 1280.92,650.256 1306.5,678C 1309.23,677.802 1311.9,677.969 1314.5,678.5C 1315.23,680.976 1315.9,683.476 1316.5,686C 1314.99,687.667 1315.33,688.834 1317.5,689.5C 1317.5,689.833 1317.5,690.167 1317.5,690.5C 1317.17,690.5 1316.83,690.5 1316.5,690.5C 1302.4,692.039 1288.4,694.039 1274.5,696.5C 1222.19,704.02 1169.86,711.354 1117.5,718.5C 1154.86,677.474 1192.2,636.474 1229.5,595.5 Z"/></g>
<g><path style="opacity:1" fill="#229255" d="M 459.5,603.5 C 464.167,606.833 468.833,610.167 473.5,613.5C 484.128,621.822 494.794,630.156 505.5,638.5C 517.347,647.258 529.014,656.258 540.5,665.5C 540.209,666.649 539.376,667.316 538,667.5C 487.444,677.445 436.944,687.445 386.5,697.5C 376.571,673.71 367.238,649.71 358.5,625.5C 359.23,623.955 360.563,623.122 362.5,623C 395.054,616.912 427.388,610.412 459.5,603.5 Z"/></g>
<g><path style="opacity:1" fill="#26a160" d="M 473.5,613.5 C 511.159,622.623 548.659,632.29 586,642.5C 586.464,641.906 586.631,641.239 586.5,640.5C 588.479,646.662 590.146,652.995 591.5,659.5C 562.711,651.801 534.044,644.801 505.5,638.5C 494.794,630.156 484.128,621.822 473.5,613.5 Z"/></g>
<g><path style="opacity:1" fill="#29ad68" d="M 731.5,614.5 C 689.65,647.927 647.984,681.594 606.5,715.5C 606.167,715.5 605.833,715.5 605.5,715.5C 599.5,710.833 593.5,706.167 587.5,701.5C 592.1,701.473 596.767,702.473 601.5,704.5C 601.833,704 602.167,703.5 602.5,703C 599.435,691.908 596.768,680.741 594.5,669.5C 640.099,650.968 685.765,632.634 731.5,614.5 Z"/></g>
<g><path style="opacity:1" fill="#29a361" d="M 950.5,635.5 C 990.038,655.769 1029.7,675.769 1069.5,695.5C 1083.67,703.085 1098,710.418 1112.5,717.5C 1112.84,718.338 1113.51,718.672 1114.5,718.5C 1114.5,718.833 1114.5,719.167 1114.5,719.5C 1052.26,731.04 989.924,742.04 927.5,752.5C 908.315,744.491 889.315,735.991 870.5,727C 840.723,711.895 816.557,690.395 798,662.5C 796.878,660.593 796.045,658.593 795.5,656.5C 847.4,650.222 899.067,643.222 950.5,635.5 Z"/></g>
<g><path style="opacity:1" fill="#27a461" d="M 505.5,638.5 C 534.044,644.801 562.711,651.801 591.5,659.5C 592.193,662.941 593.193,666.275 594.5,669.5C 596.768,680.741 599.435,691.908 602.5,703C 602.167,703.5 601.833,704 601.5,704.5C 596.767,702.473 592.1,701.473 587.5,701.5C 571.833,689.5 556.167,677.5 540.5,665.5C 529.014,656.258 517.347,647.258 505.5,638.5 Z"/></g>
<g><path style="opacity:1" fill="#27a25f" d="M 750.5,685.5 C 731.245,706.308 708.578,722.475 682.5,734C 670.812,738.846 659.145,743.679 647.5,748.5C 645.854,746.188 643.854,744.188 641.5,742.5C 644.226,742.736 646.559,741.903 648.5,740C 684.667,715.167 720.833,690.333 757,665.5C 755.16,672.19 752.993,678.857 750.5,685.5 Z"/></g>
<g><path style="opacity:1" fill="#249856" d="M 540.5,665.5 C 556.167,677.5 571.833,689.5 587.5,701.5C 593.5,706.167 599.5,710.833 605.5,715.5C 604.736,718.018 603.736,720.351 602.5,722.5C 602.265,721.903 601.765,721.57 601,721.5C 537.53,734.027 474.03,746.361 410.5,758.5C 407.481,751.8 404.481,745.133 401.5,738.5C 396.784,724.734 391.784,711.067 386.5,697.5C 436.944,687.445 487.444,677.445 538,667.5C 539.376,667.316 540.209,666.649 540.5,665.5 Z"/></g>
<g><path style="opacity:1" fill="#20915b" d="M 1327.5,679.5 C 1332.83,684.167 1337.83,689.167 1342.5,694.5C 1334.39,693.794 1326.39,692.461 1318.5,690.5C 1318.17,690.5 1317.83,690.5 1317.5,690.5C 1317.5,690.167 1317.5,689.833 1317.5,689.5C 1320.3,686.524 1322.97,683.358 1325.5,680C 1326.09,679.536 1326.76,679.369 1327.5,679.5 Z"/></g>
<g><path style="opacity:0.985" fill="#e1af43" d="M 1359.5,682.5 C 1396.83,682.5 1434.17,682.5 1471.5,682.5C 1478.83,689.167 1485.83,696.167 1492.5,703.5C 1455.17,703.5 1417.83,703.5 1380.5,703.5C 1373.17,696.833 1366.17,689.833 1359.5,682.5 Z"/></g>
<g><path style="opacity:0.991" fill="#e1af43" d="M 85.5,686.5 C 122.5,686.5 159.5,686.5 196.5,686.5C 189.833,693.833 182.833,700.833 175.5,707.5C 138.161,707.389 100.828,707.722 63.5,708.5C 70.5,700.833 77.8333,693.5 85.5,686.5 Z"/></g>
<g><path style="opacity:1" fill="#29a45e" d="M 1316.5,690.5 C 1294.5,726.5 1272.5,762.5 1250.5,798.5C 1237.81,817.878 1225.47,837.545 1213.5,857.5C 1210.11,862.233 1207.11,867.233 1204.5,872.5C 1201.01,876.79 1198.01,881.457 1195.5,886.5C 1195.5,886.833 1195.5,887.167 1195.5,887.5C 1195.17,887.5 1194.83,887.5 1194.5,887.5C 1194.5,886.833 1194.17,886.5 1193.5,886.5C 1175.03,845.761 1156.36,805.094 1137.5,764.5C 1183.36,742.072 1229.02,719.405 1274.5,696.5C 1288.4,694.039 1302.4,692.039 1316.5,690.5 Z"/></g>
<g><path style="opacity:1" fill="#197c4d" d="M 1318.5,691.5 C 1330.06,696.45 1341.73,701.117 1353.5,705.5C 1360.5,711.833 1367.17,718.5 1373.5,725.5C 1363.66,724.868 1353.66,723.535 1343.5,721.5C 1334.7,711.909 1326.37,701.909 1318.5,691.5 Z"/></g>
<g><path style="opacity:1" fill="#1c834d" d="M 1318.5,691.5 C 1318.5,691.167 1318.5,690.833 1318.5,690.5C 1326.39,692.461 1334.39,693.794 1342.5,694.5C 1346.5,697.833 1350.17,701.5 1353.5,705.5C 1341.73,701.117 1330.06,696.45 1318.5,691.5 Z"/></g>
<g><path style="opacity:1" fill="#2eb976" d="M 1112.5,717.5 C 1098,710.418 1083.67,703.085 1069.5,695.5C 1078.33,694.605 1087.33,693.938 1096.5,693.5C 1098.83,693.833 1101.17,694.167 1103.5,694.5C 1107.17,701.833 1110.83,709.167 1114.5,716.5C 1114.04,717.298 1113.38,717.631 1112.5,717.5 Z"/></g>
<g><path style="opacity:1" fill="#28a15e" d="M 1274.5,696.5 C 1229.02,719.405 1183.36,742.072 1137.5,764.5C 1130.35,749.711 1123.02,735.044 1115.5,720.5C 1115.5,720.167 1115.5,719.833 1115.5,719.5C 1116.49,719.672 1117.16,719.338 1117.5,718.5C 1169.86,711.354 1222.19,704.02 1274.5,696.5 Z"/></g>
<g><path style="opacity:1" fill="#1b8d54" d="M 1316.5,690.5 C 1316.83,690.5 1317.17,690.5 1317.5,690.5C 1317.83,690.5 1318.17,690.5 1318.5,690.5C 1318.5,690.833 1318.5,691.167 1318.5,691.5C 1326.37,701.909 1334.7,711.909 1343.5,721.5C 1350.5,730.167 1357.5,738.833 1364.5,747.5C 1326.49,764.506 1288.49,781.506 1250.5,798.5C 1272.5,762.5 1294.5,726.5 1316.5,690.5 Z"/></g>
<g><path style="opacity:0.986" fill="#dfac40" d="M 1380.5,703.5 C 1417.83,703.5 1455.17,703.5 1492.5,703.5C 1513.47,723.965 1534.3,744.632 1555,765.5C 1557.37,768.263 1559.21,771.263 1560.5,774.5C 1560.5,776.833 1560.5,779.167 1560.5,781.5C 1523.17,781.5 1485.83,781.5 1448.5,781.5C 1449.03,776.713 1447.86,772.38 1445,768.5C 1423.3,746.965 1401.8,725.299 1380.5,703.5 Z"/></g>
<g><path style="opacity:0.991" fill="#dfac40" d="M 175.5,707.5 C 155.535,727.965 135.368,748.299 115,768.5C 111.899,773.731 110.733,779.398 111.5,785.5C 74.4913,785.271 37.4913,785.604 0.5,786.5C 0.5,785.833 0.166667,785.5 -0.5,785.5C -0.5,782.167 -0.5,778.833 -0.5,775.5C 0.620727,773.259 1.78739,770.925 3,768.5C 23.0347,748.298 43.2014,728.298 63.5,708.5C 100.828,707.722 138.161,707.389 175.5,707.5 Z"/></g>
<g><path style="opacity:1" fill="#1f9555" d="M 605.5,715.5 C 605.833,715.5 606.167,715.5 606.5,715.5C 617.947,724.731 629.614,733.731 641.5,742.5C 643.854,744.188 645.854,746.188 647.5,748.5C 633.049,755.559 618.716,762.892 604.5,770.5C 603.275,769.848 602.608,768.681 602.5,767C 603.964,751.848 604.797,736.681 605,721.5C 604.726,724.715 603.393,727.381 601,729.5C 600.517,728.552 600.351,727.552 600.5,726.5C 601.674,725.486 602.34,724.153 602.5,722.5C 603.736,720.351 604.736,718.018 605.5,715.5 Z"/></g>
<g><path style="opacity:1" fill="#219b59" d="M 1114.5,719.5 C 1114.83,719.5 1115.17,719.5 1115.5,719.5C 1115.5,719.833 1115.5,720.167 1115.5,720.5C 1100.49,781.194 1085.49,841.861 1070.5,902.5C 1070.17,902.5 1069.83,902.5 1069.5,902.5C 1065.3,900.768 1060.97,899.435 1056.5,898.5C 1040.89,848.056 1011.55,807.556 968.5,777C 955.101,768.304 941.434,760.137 927.5,752.5C 989.924,742.04 1052.26,731.04 1114.5,719.5 Z"/></g>
<g><path style="opacity:1" fill="#249b57" d="M 602.5,722.5 C 602.34,724.153 601.674,725.486 600.5,726.5C 596.868,734.436 593.202,742.436 589.5,750.5C 533.024,761.595 476.691,772.928 420.5,784.5C 416.609,776.178 413.276,767.511 410.5,758.5C 474.03,746.361 537.53,734.027 601,721.5C 601.765,721.57 602.265,721.903 602.5,722.5 Z"/></g>
<g><path style="opacity:1" fill="#229753" d="M 604.5,770.5 C 594.348,777.745 584.015,784.745 573.5,791.5C 572.957,791.44 572.624,791.107 572.5,790.5C 577.437,779.624 582.104,768.624 586.5,757.5C 587.773,755.287 588.773,752.954 589.5,750.5C 593.202,742.436 596.868,734.436 600.5,726.5C 600.351,727.552 600.517,728.552 601,729.5C 603.393,727.381 604.726,724.715 605,721.5C 604.797,736.681 603.964,751.848 602.5,767C 602.608,768.681 603.275,769.848 604.5,770.5 Z"/></g>
<g><path style="opacity:1" fill="#1a7f4e" d="M 1343.5,721.5 C 1353.66,723.535 1363.66,724.868 1373.5,725.5C 1388.16,739.327 1402.33,753.661 1416,768.5C 1419.71,780.217 1416.54,789.55 1406.5,796.5C 1404.6,796.262 1403.26,795.262 1402.5,793.5C 1400.06,790.271 1397.39,787.271 1394.5,784.5C 1393.22,781.553 1391.22,779.219 1388.5,777.5C 1380.9,767.23 1372.9,757.23 1364.5,747.5C 1357.5,738.833 1350.5,730.167 1343.5,721.5 Z"/></g>
<g><path style="opacity:1" fill="#33d078" d="M 1115.5,720.5 C 1123.02,735.044 1130.35,749.711 1137.5,764.5C 1156.36,805.094 1175.03,845.761 1193.5,886.5C 1152.49,891.751 1111.49,897.084 1070.5,902.5C 1085.49,841.861 1100.49,781.194 1115.5,720.5 Z"/></g>
<g><path style="opacity:1" fill="#1b8549" d="M 401.5,738.5 C 404.481,745.133 407.481,751.8 410.5,758.5C 413.276,767.511 416.609,776.178 420.5,784.5C 420.402,786.553 421.069,788.22 422.5,789.5C 430.648,812.802 439.648,835.802 449.5,858.5C 458.289,882.74 467.623,906.74 477.5,930.5C 477.5,931.167 477.5,931.833 477.5,932.5C 460.021,934.394 442.354,935.728 424.5,936.5C 332.676,888.755 241.009,840.755 149.5,792.5C 143.247,786.902 141.081,779.902 143,771.5C 148.251,763.081 154.751,755.748 162.5,749.5C 164.473,750.163 166.639,750.496 169,750.5C 246.569,746.672 324.069,742.672 401.5,738.5 Z"/></g>
<g><path style="opacity:1" fill="#1e9156" d="M 1364.5,747.5 C 1372.9,757.23 1380.9,767.23 1388.5,777.5C 1387.88,779.335 1386.54,780.502 1384.5,781C 1327.71,806.559 1271.05,832.393 1214.5,858.5C 1213.89,858.376 1213.56,858.043 1213.5,857.5C 1225.47,837.545 1237.81,817.878 1250.5,798.5C 1288.49,781.506 1326.49,764.506 1364.5,747.5 Z"/></g>
<g><path style="opacity:1" fill="#249c57" d="M 589.5,750.5 C 588.773,752.954 587.773,755.287 586.5,757.5C 531.864,768.294 477.198,778.96 422.5,789.5C 421.069,788.22 420.402,786.553 420.5,784.5C 476.691,772.928 533.024,761.595 589.5,750.5 Z"/></g>
<g><path style="opacity:1" fill="#269f58" d="M 586.5,757.5 C 582.104,768.624 577.437,779.624 572.5,790.5C 572.624,791.107 572.957,791.44 573.5,791.5C 555.719,806.277 540.053,822.944 526.5,841.5C 501.763,846.763 476.929,851.763 452,856.5C 450.624,856.684 449.791,857.351 449.5,858.5C 439.648,835.802 430.648,812.802 422.5,789.5C 477.198,778.96 531.864,768.294 586.5,757.5 Z"/></g>
<g><path style="opacity:1" fill="#1f9357" d="M 1388.5,777.5 C 1391.22,779.219 1393.22,781.553 1394.5,784.5C 1391.9,786.81 1388.9,788.643 1385.5,790C 1325.14,817.514 1264.81,845.014 1204.5,872.5C 1207.11,867.233 1210.11,862.233 1213.5,857.5C 1213.56,858.043 1213.89,858.376 1214.5,858.5C 1271.05,832.393 1327.71,806.559 1384.5,781C 1386.54,780.502 1387.88,779.335 1388.5,777.5 Z"/></g>
<g><path style="opacity:0.986" fill="#dda93d" d="M 1448.5,781.5 C 1485.83,781.5 1523.17,781.5 1560.5,781.5C 1560.5,782.833 1560.5,784.167 1560.5,785.5C 1559.38,787.741 1558.21,790.075 1557,792.5C 1548.96,800.702 1540.8,808.702 1532.5,816.5C 1495.17,816.5 1457.83,816.5 1420.5,816.5C 1428.46,808.035 1436.63,799.702 1445,791.5C 1447.26,788.562 1448.42,785.229 1448.5,781.5 Z"/></g>
<g><path style="opacity:0.986" fill="#dda93d" d="M 111.5,785.5 C 112.375,787.568 113.541,789.568 115,791.5C 124.702,801.035 134.202,810.702 143.5,820.5C 106.507,821.344 69.5068,821.678 32.5,821.5C 22.8683,812.369 13.3683,803.036 4,793.5C 2.29501,791.423 1.12835,789.09 0.5,786.5C 37.4913,785.604 74.4913,785.271 111.5,785.5 Z"/></g>
<g><path style="opacity:1" fill="#209457" d="M 1394.5,784.5 C 1397.39,787.271 1400.06,790.271 1402.5,793.5C 1336.42,822.71 1270.75,852.71 1205.5,883.5C 1202.38,884.87 1199.05,885.87 1195.5,886.5C 1198.01,881.457 1201.01,876.79 1204.5,872.5C 1264.81,845.014 1325.14,817.514 1385.5,790C 1388.9,788.643 1391.9,786.81 1394.5,784.5 Z"/></g>
<g><path style="opacity:1" fill="#209658" d="M 1402.5,793.5 C 1403.26,795.262 1404.6,796.262 1406.5,796.5C 1391.5,812.167 1376.17,827.5 1360.5,842.5C 1360.26,841.903 1359.76,841.57 1359,841.5C 1307.9,855.812 1256.73,869.812 1205.5,883.5C 1270.75,852.71 1336.42,822.71 1402.5,793.5 Z"/></g>
<g><path style="opacity:0.984" fill="#36b24a" d="M 149.5,792.5 C 241.009,840.755 332.676,888.755 424.5,936.5C 432.329,940.58 439.996,944.913 447.5,949.5C 407.848,957.497 368.181,965.497 328.5,973.5C 327.062,973.281 325.729,972.781 324.5,972C 322.818,969.31 321.318,966.477 320,963.5C 262.965,906.632 206.132,849.632 149.5,792.5 Z"/></g>
<g><path style="opacity:0.985" fill="#dba63a" d="M 1420.5,816.5 C 1457.83,816.5 1495.17,816.5 1532.5,816.5C 1512.5,837.167 1492.17,857.5 1471.5,877.5C 1433.84,878.365 1396.17,878.698 1358.5,878.5C 1378.83,857.5 1399.5,836.833 1420.5,816.5 Z"/></g>
<g><path style="opacity:0.985" fill="#dba63a" d="M 143.5,820.5 C 164.167,840.5 184.5,860.833 204.5,881.5C 167.67,882.498 130.67,882.832 93.5,882.5C 72.8333,862.5 52.5,842.167 32.5,821.5C 69.5068,821.678 106.507,821.344 143.5,820.5 Z"/></g>
<g><path style="opacity:1" fill="#1b8d4e" d="M 1360.5,842.5 C 1333.83,869.833 1306.83,896.833 1279.5,923.5C 1268.66,925.542 1258,928.209 1247.5,931.5C 1241.5,926.5 1235.5,921.5 1229.5,916.5C 1218.19,906.863 1206.86,897.196 1195.5,887.5C 1195.5,887.167 1195.5,886.833 1195.5,886.5C 1199.05,885.87 1202.38,884.87 1205.5,883.5C 1256.73,869.812 1307.9,855.812 1359,841.5C 1359.76,841.57 1360.26,841.903 1360.5,842.5 Z"/></g>
<g><path style="opacity:1" fill="#27a459" d="M 526.5,841.5 C 510.578,866.927 500.578,894.593 496.5,924.5C 495.733,925.172 495.066,926.005 494.5,927C 488.727,927.854 483.061,929.021 477.5,930.5C 467.623,906.74 458.289,882.74 449.5,858.5C 449.791,857.351 450.624,856.684 452,856.5C 476.929,851.763 501.763,846.763 526.5,841.5 Z"/></g>
<g><path style="opacity:1" fill="#27a75a" d="M 1193.5,886.5 C 1155.47,905.182 1117.47,923.849 1079.5,942.5C 1074.55,941.943 1069.72,940.943 1065,939.5C 1063.28,931.196 1061.78,922.863 1060.5,914.5C 1064.26,911.071 1067.26,907.071 1069.5,902.5C 1069.83,902.5 1070.17,902.5 1070.5,902.5C 1111.49,897.084 1152.49,891.751 1193.5,886.5 Z"/></g>
<g><path style="opacity:1" fill="#31ca64" d="M 1193.5,886.5 C 1194.17,886.5 1194.5,886.833 1194.5,887.5C 1191.46,898.36 1188.12,909.027 1184.5,919.5C 1166.19,929.988 1147.86,940.488 1129.5,951C 1128.21,951.49 1126.87,951.657 1125.5,951.5C 1110.04,949.008 1094.71,946.008 1079.5,942.5C 1117.47,923.849 1155.47,905.182 1193.5,886.5 Z"/></g>
<g><path style="opacity:1" fill="#28a955" d="M 1194.5,887.5 C 1194.83,887.5 1195.17,887.5 1195.5,887.5C 1206.86,897.196 1218.19,906.863 1229.5,916.5C 1213.17,924.66 1196.51,932.327 1179.5,939.5C 1181.48,932.911 1183.15,926.244 1184.5,919.5C 1188.12,909.027 1191.46,898.36 1194.5,887.5 Z"/></g>
<g><path style="opacity:0.985" fill="#daa437" d="M 1471.5,877.5 C 1459.17,890.5 1446.5,903.167 1433.5,915.5C 1395.83,915.504 1358.16,915.838 1320.5,916.5C 1332.83,903.5 1345.5,890.833 1358.5,878.5C 1396.17,878.698 1433.84,878.365 1471.5,877.5 Z"/></g>
<g><path style="opacity:0.985" fill="#daa437" d="M 204.5,881.5 C 217.5,893.833 230.167,906.5 242.5,919.5C 205.167,919.5 167.833,919.5 130.5,919.5C 117.833,907.5 105.5,895.167 93.5,882.5C 130.67,882.832 167.67,882.498 204.5,881.5 Z"/></g>
<g><path style="opacity:1" fill="#2ab05c" d="M 1056.5,898.5 C 1060.97,899.435 1065.3,900.768 1069.5,902.5C 1067.26,907.071 1064.26,911.071 1060.5,914.5C 1058.86,909.267 1057.52,903.933 1056.5,898.5 Z"/></g>
<g><path style="opacity:0.985" fill="#dba63a" d="M 1433.5,915.5 C 1421.17,928.5 1408.5,941.167 1395.5,953.5C 1358.17,953.5 1320.83,953.5 1283.5,953.5C 1295.5,940.833 1307.83,928.5 1320.5,916.5C 1358.16,915.838 1395.83,915.504 1433.5,915.5 Z"/></g>
<g><path style="opacity:1" fill="#26a652" d="M 1229.5,916.5 C 1235.5,921.5 1241.5,926.5 1247.5,931.5C 1251.51,935.513 1255.85,939.179 1260.5,942.5C 1253.87,949.632 1247.04,956.632 1240,963.5C 1238.72,965.717 1237.72,968.051 1237,970.5C 1235.53,972.152 1233.7,973.152 1231.5,973.5C 1212.1,969.62 1192.77,965.62 1173.5,961.5C 1175.19,954.063 1177.19,946.73 1179.5,939.5C 1196.51,932.327 1213.17,924.66 1229.5,916.5 Z"/></g>
<g><path style="opacity:0.985" fill="#dba63a" d="M 130.5,919.5 C 167.833,919.5 205.167,919.5 242.5,919.5C 255.5,931.833 268.167,944.5 280.5,957.5C 243.167,957.5 205.833,957.5 168.5,957.5C 155.5,945.167 142.833,932.5 130.5,919.5 Z"/></g>
<g><path style="opacity:1" fill="#30c862" d="M 1184.5,919.5 C 1183.15,926.244 1181.48,932.911 1179.5,939.5C 1177.19,946.73 1175.19,954.063 1173.5,961.5C 1157.25,958.784 1141.25,955.451 1125.5,951.5C 1126.87,951.657 1128.21,951.49 1129.5,951C 1147.86,940.488 1166.19,929.988 1184.5,919.5 Z"/></g>
<g><path style="opacity:1" fill="#1e914e" d="M 1279.5,923.5 C 1273.5,930.167 1267.17,936.5 1260.5,942.5C 1255.85,939.179 1251.51,935.513 1247.5,931.5C 1258,928.209 1268.66,925.542 1279.5,923.5 Z"/></g>
<g><path style="opacity:1" fill="#29a959" d="M 496.5,924.5 C 496.248,929.519 495.748,934.519 495,939.5C 490.593,940.815 486.093,941.815 481.5,942.5C 480.679,938.873 479.346,935.54 477.5,932.5C 477.5,931.833 477.5,931.167 477.5,930.5C 483.061,929.021 488.727,927.854 494.5,927C 495.066,926.005 495.733,925.172 496.5,924.5 Z"/></g>
<g><path style="opacity:1" fill="#1d8a49" d="M 477.5,932.5 C 479.346,935.54 480.679,938.873 481.5,942.5C 470.167,944.833 458.833,947.167 447.5,949.5C 439.996,944.913 432.329,940.58 424.5,936.5C 442.354,935.728 460.021,934.394 477.5,932.5 Z"/></g>
<g><path style="opacity:0.985" fill="#dda93d" d="M 1283.5,953.5 C 1320.83,953.5 1358.17,953.5 1395.5,953.5C 1388.83,960.833 1381.83,967.833 1374.5,974.5C 1337.17,975.035 1299.84,975.369 1262.5,975.5C 1268.78,967.555 1275.78,960.222 1283.5,953.5 Z"/></g>
<g><path style="opacity:0.985" fill="#dda93d" d="M 168.5,957.5 C 205.833,957.5 243.167,957.5 280.5,957.5C 287.936,963.598 294.27,970.598 299.5,978.5C 262.833,978.5 226.167,978.5 189.5,978.5C 182.167,971.833 175.167,964.833 168.5,957.5 Z"/></g>
<g><path style="opacity:0.986" fill="#dfac40" d="M 1374.5,974.5 C 1363.87,985.632 1353.04,996.632 1342,1007.5C 1339.62,1011.15 1338.12,1015.15 1337.5,1019.5C 1311.17,1019.5 1284.83,1019.5 1258.5,1019.5C 1258.33,1007.16 1258.5,994.829 1259,982.5C 1259.52,979.719 1260.69,977.385 1262.5,975.5C 1299.84,975.369 1337.17,975.035 1374.5,974.5 Z"/></g>
<g><path style="opacity:0.987" fill="#dfac40" d="M 189.5,978.5 C 226.167,978.5 262.833,978.5 299.5,978.5C 300.268,979.263 300.768,980.263 301,981.5C 301.5,996.163 301.667,1010.83 301.5,1025.5C 275.833,1025.5 250.167,1025.5 224.5,1025.5C 223.114,1019.8 221.281,1014.13 219,1008.5C 208.964,998.632 199.131,988.632 189.5,978.5 Z"/></g>
<g><path style="opacity:0.988" fill="#e1af43" d="M 1258.5,1019.5 C 1284.83,1019.5 1311.17,1019.5 1337.5,1019.5C 1336.37,1024.22 1335.04,1028.89 1333.5,1033.5C 1308.5,1033.95 1283.5,1034.28 1258.5,1034.5C 1258.5,1029.5 1258.5,1024.5 1258.5,1019.5 Z"/></g>
<g><path style="opacity:0.987" fill="#e1af43" d="M 224.5,1025.5 C 250.167,1025.5 275.833,1025.5 301.5,1025.5C 301.5,1029.5 301.5,1033.5 301.5,1037.5C 277.167,1037.5 252.833,1037.5 228.5,1037.5C 226.595,1033.78 225.261,1029.78 224.5,1025.5 Z"/></g>
<g><path style="opacity:0.985" fill="#e2b147" d="M 1333.5,1033.5 C 1327.49,1052.52 1321.49,1071.52 1315.5,1090.5C 1296.5,1090.5 1277.5,1090.5 1258.5,1090.5C 1258.5,1071.83 1258.5,1053.17 1258.5,1034.5C 1283.5,1034.28 1308.5,1033.95 1333.5,1033.5 Z"/></g>
<g><path style="opacity:0.985" fill="#e2b147" d="M 228.5,1037.5 C 252.833,1037.5 277.167,1037.5 301.5,1037.5C 301.5,1056.17 301.5,1074.83 301.5,1093.5C 282.833,1093.5 264.167,1093.5 245.5,1093.5C 239.429,1074.95 233.762,1056.29 228.5,1037.5 Z"/></g>
<g><path style="opacity:0.911" fill="#3fbf8d" d="M 407.5,1042.5 C 401.795,1048.2 396.462,1054.2 391.5,1060.5C 387.5,1060.5 383.5,1060.5 379.5,1060.5C 379.5,1054.5 379.5,1048.5 379.5,1042.5C 388.833,1042.5 398.167,1042.5 407.5,1042.5 Z"/></g>
<g><path style="opacity:0.948" fill="#41c490" d="M 407.5,1042.5 C 414.5,1042.5 421.5,1042.5 428.5,1042.5C 421.798,1053.52 415.132,1064.52 408.5,1075.5C 408.13,1064.46 402.464,1059.46 391.5,1060.5C 396.462,1054.2 401.795,1048.2 407.5,1042.5 Z"/></g>
<g><path style="opacity:0.964" fill="#4be4a4" d="M 428.5,1042.5 C 439.5,1042.5 450.5,1042.5 461.5,1042.5C 443.823,1063.87 426.156,1085.21 408.5,1106.5C 408.5,1096.17 408.5,1085.83 408.5,1075.5C 415.132,1064.52 421.798,1053.52 428.5,1042.5 Z"/></g>
<g><path style="opacity:0.972" fill="#48e29f" d="M 461.5,1042.5 C 470.167,1042.5 478.833,1042.5 487.5,1042.5C 487.5,1048.5 487.5,1054.5 487.5,1060.5C 466.808,1055.54 457.142,1063.54 458.5,1084.5C 441.833,1104.17 425.167,1123.83 408.5,1143.5C 408.5,1131.17 408.5,1118.83 408.5,1106.5C 426.156,1085.21 443.823,1063.87 461.5,1042.5 Z"/></g>
<g><path style="opacity:0.918" fill="#46d89e" d="M 580.5,1042.5 C 566.282,1048.78 551.948,1054.78 537.5,1060.5C 531.5,1060.5 525.5,1060.5 519.5,1060.5C 519.5,1054.5 519.5,1048.5 519.5,1042.5C 539.833,1042.5 560.167,1042.5 580.5,1042.5 Z"/></g>
<g><path style="opacity:0.977" fill="#43d59a" d="M 580.5,1042.5 C 587.5,1042.5 594.5,1042.5 601.5,1042.5C 601.5,1045.5 601.5,1048.5 601.5,1051.5C 583.845,1058.16 566.179,1064.83 548.5,1071.5C 547.236,1065.57 543.569,1061.9 537.5,1060.5C 551.948,1054.78 566.282,1048.78 580.5,1042.5 Z"/></g>
<g><path style="opacity:0.973" fill="#3bc88c" d="M 618.5,1042.5 C 636.833,1042.5 655.167,1042.5 673.5,1042.5C 672.993,1055.83 672.66,1069.16 672.5,1082.5C 672.5,1083.5 672.5,1084.5 672.5,1085.5C 672.167,1085.5 671.833,1085.5 671.5,1085.5C 671.167,1085.5 670.833,1085.5 670.5,1085.5C 661.408,1077.12 651.742,1069.45 641.5,1062.5C 633.833,1055.83 626.167,1049.17 618.5,1042.5 Z"/></g>
<g><path style="opacity:0.964" fill="#36c085" d="M 673.5,1042.5 C 679.5,1042.5 685.5,1042.5 691.5,1042.5C 685.676,1056.15 679.343,1069.48 672.5,1082.5C 672.66,1069.16 672.993,1055.83 673.5,1042.5 Z"/></g>
<g><path style="opacity:0.975" fill="#31b57c" d="M 691.5,1042.5 C 701.833,1042.5 712.167,1042.5 722.5,1042.5C 722.5,1048.5 722.5,1054.5 722.5,1060.5C 715.825,1060.33 709.158,1060.5 702.5,1061C 697.664,1062.82 694.831,1066.32 694,1071.5C 693.5,1079.16 693.334,1086.83 693.5,1094.5C 686.301,1091.67 679.301,1088.67 672.5,1085.5C 672.5,1084.5 672.5,1083.5 672.5,1082.5C 679.343,1069.48 685.676,1056.15 691.5,1042.5 Z"/></g>
<g><path style="opacity:0.953" fill="#2fb279" d="M 752.5,1118.5 C 745.346,1115.68 738.346,1112.68 731.5,1109.5C 738.498,1101.67 745.331,1093.67 752,1085.5C 755.159,1080.35 757.325,1074.85 758.5,1069C 758.042,1066.17 756.708,1063.84 754.5,1062C 750.195,1060.99 745.861,1060.15 741.5,1059.5C 740.505,1053.87 740.171,1048.21 740.5,1042.5C 768.833,1042.5 797.167,1042.5 825.5,1042.5C 825.829,1048.21 825.495,1053.87 824.5,1059.5C 814.831,1060.56 806.165,1064.06 798.5,1070C 782.287,1085.38 766.954,1101.54 752.5,1118.5 Z"/></g>
<g><path style="opacity:0.946" fill="#2aa572" d="M 926.5,1042.5 C 907.872,1056.82 889.205,1071.16 870.5,1085.5C 872.969,1063.53 863.302,1055.2 841.5,1060.5C 841.5,1054.5 841.5,1048.5 841.5,1042.5C 869.833,1042.5 898.167,1042.5 926.5,1042.5 Z"/></g>
<g><path style="opacity:0.979" fill="#249c67" d="M 926.5,1042.5 C 929.5,1042.5 932.5,1042.5 935.5,1042.5C 933.452,1048.93 931.118,1055.26 928.5,1061.5C 925.44,1062.91 923.274,1065.25 922,1068.5C 920.844,1072.42 920.344,1076.42 920.5,1080.5C 904.028,1119.25 887.361,1157.92 870.5,1196.5C 870.5,1159.5 870.5,1122.5 870.5,1085.5C 889.205,1071.16 907.872,1056.82 926.5,1042.5 Z"/></g>
<g><path style="opacity:0.941" fill="#229562" d="M 935.5,1042.5 C 940.167,1042.5 944.833,1042.5 949.5,1042.5C 949.5,1048.5 949.5,1054.5 949.5,1060.5C 942.443,1060.24 935.443,1060.57 928.5,1061.5C 931.118,1055.26 933.452,1048.93 935.5,1042.5 Z"/></g>
<g><path style="opacity:0.941" fill="#239465" d="M 1025.5,1070.5 C 1006.46,1061.65 987.123,1053.32 967.5,1045.5C 967.5,1044.5 967.5,1043.5 967.5,1042.5C 995.833,1042.5 1024.17,1042.5 1052.5,1042.5C 1052.67,1048.18 1052.5,1053.84 1052,1059.5C 1041.97,1060.34 1033.13,1064.01 1025.5,1070.5 Z"/></g>
<g><path style="opacity:0.929" fill="#229063" d="M 1091.5,1042.5 C 1089.84,1048.48 1088.17,1054.48 1086.5,1060.5C 1080.5,1060.5 1074.5,1060.5 1068.5,1060.5C 1068.5,1054.5 1068.5,1048.5 1068.5,1042.5C 1076.17,1042.5 1083.83,1042.5 1091.5,1042.5 Z"/></g>
<g><path style="opacity:0.958" fill="#1d8058" d="M 1091.5,1042.5 C 1114.5,1042.5 1137.5,1042.5 1160.5,1042.5C 1139.7,1055.74 1118.7,1068.74 1097.5,1081.5C 1098.16,1075.44 1097,1069.77 1094,1064.5C 1091.84,1062.5 1089.34,1061.17 1086.5,1060.5C 1088.17,1054.48 1089.84,1048.48 1091.5,1042.5 Z"/></g>
<g><path style="opacity:0.971" fill="#136f48" d="M 1160.5,1042.5 C 1165.83,1042.5 1171.17,1042.5 1176.5,1042.5C 1176.5,1048.5 1176.5,1054.5 1176.5,1060.5C 1169.08,1060.11 1161.75,1060.61 1154.5,1062C 1150.49,1065.2 1148.49,1069.36 1148.5,1074.5C 1131.54,1078.99 1114.54,1083.32 1097.5,1087.5C 1097.5,1085.5 1097.5,1083.5 1097.5,1081.5C 1118.7,1068.74 1139.7,1055.74 1160.5,1042.5 Z"/></g>
<g><path style="opacity:0.949" fill="#40d296" d="M 618.5,1042.5 C 626.167,1049.17 633.833,1055.83 641.5,1062.5C 641.158,1063.34 640.492,1063.67 639.5,1063.5C 637.86,1062.68 636.193,1061.85 634.5,1061C 627.842,1060.5 621.175,1060.33 614.5,1060.5C 614.5,1054.5 614.5,1048.5 614.5,1042.5C 615.833,1042.5 617.167,1042.5 618.5,1042.5 Z"/></g>
<g><path style="opacity:0.95" fill="#41d296" d="M 601.5,1051.5 C 601.5,1054.5 601.5,1057.5 601.5,1060.5C 595.158,1060.33 588.825,1060.5 582.5,1061C 577.929,1062.57 575.096,1065.74 574,1070.5C 572.948,1077.13 572.448,1083.79 572.5,1090.5C 564.5,1090.5 556.5,1090.5 548.5,1090.5C 548.5,1084.17 548.5,1077.83 548.5,1071.5C 566.179,1064.83 583.845,1058.16 601.5,1051.5 Z"/></g>
<g><path style="opacity:0.968" fill="#208d5c" d="M 967.5,1045.5 C 987.123,1053.32 1006.46,1061.65 1025.5,1070.5C 1020.24,1074.26 1015.41,1078.59 1011,1083.5C 1003.67,1092.66 995.837,1101.33 987.5,1109.5C 983.736,1102.96 979.736,1096.63 975.5,1090.5C 980.834,1084.33 984.167,1077.16 985.5,1069C 985.097,1066.11 983.764,1063.78 981.5,1062C 976.889,1060.84 972.223,1060.01 967.5,1059.5C 967.5,1054.83 967.5,1050.17 967.5,1045.5 Z"/></g>
<g><path style="opacity:0.988" fill="#3bcc8d" d="M 641.5,1062.5 C 651.742,1069.45 661.408,1077.12 670.5,1085.5C 661.494,1085.7 652.494,1086.03 643.5,1086.5C 644.379,1078.37 643.046,1070.71 639.5,1063.5C 640.492,1063.67 641.158,1063.34 641.5,1062.5 Z"/></g>
<g><path style="opacity:0.987" fill="#11623f" d="M 1148.5,1074.5 C 1147.53,1088.45 1147.2,1102.45 1147.5,1116.5C 1130.78,1120.38 1114.12,1124.38 1097.5,1128.5C 1097.5,1114.83 1097.5,1101.17 1097.5,1087.5C 1114.54,1083.32 1131.54,1078.99 1148.5,1074.5 Z"/></g>
<g><path style="opacity:0.976" fill="#21925e" d="M 920.5,1080.5 C 920.333,1103.5 920.5,1126.5 921,1149.5C 939.401,1129.94 957.567,1110.27 975.5,1090.5C 979.736,1096.63 983.736,1102.96 987.5,1109.5C 981.041,1117.13 974.375,1124.63 967.5,1132C 968.823,1132.82 969.489,1133.98 969.5,1135.5C 936.324,1158.92 903.324,1182.59 870.5,1206.5C 870.5,1203.17 870.5,1199.83 870.5,1196.5C 887.361,1157.92 904.028,1119.25 920.5,1080.5 Z"/></g>
<g><path style="opacity:0.993" fill="#30b574" d="M 670.5,1085.5 C 670.833,1085.5 671.167,1085.5 671.5,1085.5C 672.575,1097.37 674.575,1109.04 677.5,1120.5C 682.315,1153.72 687.648,1186.72 693.5,1219.5C 692.805,1227.47 693.805,1235.13 696.5,1242.5C 697.934,1249.77 698.934,1257.11 699.5,1264.5C 671.167,1264.5 642.833,1264.5 614.5,1264.5C 614.5,1258.83 614.5,1253.17 614.5,1247.5C 621.906,1247.85 629.239,1247.35 636.5,1246C 640.296,1243.59 642.462,1240.09 643,1235.5C 643.5,1185.83 643.667,1136.17 643.5,1086.5C 652.494,1086.03 661.494,1085.7 670.5,1085.5 Z"/></g>
<g><path style="opacity:0.998" fill="#2baf72" d="M 671.5,1085.5 C 671.833,1085.5 672.167,1085.5 672.5,1085.5C 679.301,1088.67 686.301,1091.67 693.5,1094.5C 693.5,1099.17 693.5,1103.83 693.5,1108.5C 692.399,1107.2 691.066,1106.7 689.5,1107C 685.635,1111.69 681.635,1116.19 677.5,1120.5C 674.575,1109.04 672.575,1097.37 671.5,1085.5 Z"/></g>
<g><path style="opacity:0.984" fill="#31b675" d="M 548.5,1090.5 C 556.5,1090.5 564.5,1090.5 572.5,1090.5C 572.5,1113.17 572.5,1135.83 572.5,1158.5C 564.5,1150.5 556.5,1142.5 548.5,1134.5C 548.5,1119.83 548.5,1105.17 548.5,1090.5 Z"/></g>
<g><path style="opacity:0.99" fill="#45de9b" d="M 458.5,1084.5 C 458.5,1098.17 458.5,1111.83 458.5,1125.5C 441.833,1135.5 425.167,1145.5 408.5,1155.5C 408.5,1151.5 408.5,1147.5 408.5,1143.5C 425.167,1123.83 441.833,1104.17 458.5,1084.5 Z"/></g>
<g><path style="opacity:0.978" fill="#e5b74d" d="M 1258.5,1090.5 C 1277.5,1090.5 1296.5,1090.5 1315.5,1090.5C 1309.34,1110.32 1303,1129.99 1296.5,1149.5C 1283.83,1149.5 1271.17,1149.5 1258.5,1149.5C 1258.5,1129.83 1258.5,1110.17 1258.5,1090.5 Z"/></g>
<g><path style="opacity:0.978" fill="#e5b74d" d="M 245.5,1093.5 C 264.167,1093.5 282.833,1093.5 301.5,1093.5C 301.5,1113.17 301.5,1132.83 301.5,1152.5C 289.167,1152.5 276.833,1152.5 264.5,1152.5C 257.965,1132.9 251.632,1113.23 245.5,1093.5 Z"/></g>
<g><path style="opacity:0.97" fill="#29ab6d" d="M 693.5,1108.5 C 693.333,1122.17 693.5,1135.84 694,1149.5C 700.004,1142.33 706.504,1135.66 713.5,1129.5C 723.167,1141 733.667,1151.67 745,1161.5C 749.107,1160.18 753.274,1159.18 757.5,1158.5C 762.084,1165.33 766.417,1172.33 770.5,1179.5C 767.687,1179.55 765.021,1180.21 762.5,1181.5C 760.851,1180.35 759.351,1179.02 758,1177.5C 749.33,1187.67 740.497,1197.67 731.5,1207.5C 723.014,1193.87 714.514,1180.2 706,1166.5C 701.839,1169.25 697.839,1172.25 694,1175.5C 693.5,1190.16 693.333,1204.83 693.5,1219.5C 687.648,1186.72 682.315,1153.72 677.5,1120.5C 681.635,1116.19 685.635,1111.69 689.5,1107C 691.066,1106.7 692.399,1107.2 693.5,1108.5 Z"/></g>
<g><path style="opacity:0.967" fill="#2cac72" d="M 731.5,1109.5 C 738.346,1112.68 745.346,1115.68 752.5,1118.5C 748.337,1122.83 744.337,1127.33 740.5,1132C 746.053,1140.95 751.719,1149.78 757.5,1158.5C 753.274,1159.18 749.107,1160.18 745,1161.5C 733.667,1151.67 723.167,1141 713.5,1129.5C 719.136,1122.53 725.136,1115.86 731.5,1109.5 Z"/></g>
<g><path style="opacity:0.985" fill="#116640" d="M 1147.5,1116.5 C 1147.5,1134.17 1147.5,1151.83 1147.5,1169.5C 1130.83,1173.17 1114.17,1176.83 1097.5,1180.5C 1097.5,1163.17 1097.5,1145.83 1097.5,1128.5C 1114.12,1124.38 1130.78,1120.38 1147.5,1116.5 Z"/></g>
<g><path style="opacity:0.983" fill="#35c57e" d="M 458.5,1125.5 C 458.5,1150.17 458.5,1174.83 458.5,1199.5C 449.5,1216.83 440.5,1234.17 431.5,1251.5C 417.067,1239.3 409.567,1223.63 409,1204.5C 408.5,1188.17 408.333,1171.84 408.5,1155.5C 425.167,1145.5 441.833,1135.5 458.5,1125.5 Z"/></g>
<g><path style="opacity:0.979" fill="#20905c" d="M 969.5,1135.5 C 978.331,1148.49 986.664,1161.82 994.5,1175.5C 982.038,1185.57 969.038,1194.9 955.5,1203.5C 948.43,1191.03 941.097,1178.7 933.5,1166.5C 929.324,1169.09 925.324,1171.92 921.5,1175C 920.507,1194.42 920.174,1213.92 920.5,1233.5C 903.519,1235.03 886.519,1236.36 869.5,1237.5C 870.475,1227.25 870.808,1216.92 870.5,1206.5C 903.324,1182.59 936.324,1158.92 969.5,1135.5 Z"/></g>
<g><path style="opacity:0.978" fill="#2bb06e" d="M 548.5,1134.5 C 556.5,1142.5 564.5,1150.5 572.5,1158.5C 572.5,1174.17 572.5,1189.83 572.5,1205.5C 564.033,1207.77 555.7,1210.43 547.5,1213.5C 548.464,1187.19 548.797,1160.86 548.5,1134.5 Z"/></g>
<g><path style="opacity:0.961" fill="#e9bc53" d="M 1258.5,1149.5 C 1271.17,1149.5 1283.83,1149.5 1296.5,1149.5C 1289.81,1172.26 1282.81,1194.93 1275.5,1217.5C 1269.83,1217.5 1264.17,1217.5 1258.5,1217.5C 1258.5,1194.83 1258.5,1172.17 1258.5,1149.5 Z"/></g>
<g><path style="opacity:0.985" fill="#136943" d="M 1147.5,1169.5 C 1147.5,1178.83 1147.5,1188.17 1147.5,1197.5C 1130.84,1201.5 1114.17,1205.5 1097.5,1209.5C 1097.5,1199.83 1097.5,1190.17 1097.5,1180.5C 1114.17,1176.83 1130.83,1173.17 1147.5,1169.5 Z"/></g>
<g><path style="opacity:0.957" fill="#e9bc53" d="M 264.5,1152.5 C 276.833,1152.5 289.167,1152.5 301.5,1152.5C 301.5,1175.17 301.5,1197.83 301.5,1220.5C 296.527,1221.16 291.527,1221.5 286.5,1221.5C 278.721,1198.74 271.387,1175.74 264.5,1152.5 Z"/></g>
<g><path style="opacity:0.987" fill="#28a76a" d="M 770.5,1179.5 C 770.5,1179.83 770.5,1180.17 770.5,1180.5C 769.236,1182.27 767.736,1183.94 766,1185.5C 758.822,1200.52 751.655,1215.52 744.5,1230.5C 739.774,1223.09 735.441,1215.43 731.5,1207.5C 740.497,1197.67 749.33,1187.67 758,1177.5C 759.351,1179.02 760.851,1180.35 762.5,1181.5C 765.021,1180.21 767.687,1179.55 770.5,1179.5 Z"/></g>
<g><path style="opacity:0.979" fill="#239b61" d="M 770.5,1180.5 C 782.077,1198.59 793.911,1216.59 806,1234.5C 813.542,1243.36 823.042,1248.02 834.5,1248.5C 822.345,1253.66 810.345,1258.99 798.5,1264.5C 772.644,1265.26 754.644,1253.92 744.5,1230.5C 751.655,1215.52 758.822,1200.52 766,1185.5C 767.736,1183.94 769.236,1182.27 770.5,1180.5 Z"/></g>
<g><path style="opacity:0.988" fill="#0f5f3a" d="M 1147.5,1197.5 C 1147.33,1208.84 1147.5,1220.17 1148,1231.5C 1147.69,1239.4 1151.19,1244.57 1158.5,1247C 1164.49,1247.5 1170.49,1247.67 1176.5,1247.5C 1176.5,1253.17 1176.5,1258.83 1176.5,1264.5C 1149.83,1264.5 1123.17,1264.5 1096.5,1264.5C 1091.87,1258.54 1086.87,1252.87 1081.5,1247.5C 1088.36,1248.29 1093.19,1245.62 1096,1239.5C 1097.42,1229.58 1097.92,1219.58 1097.5,1209.5C 1114.17,1205.5 1130.84,1201.5 1147.5,1197.5 Z"/></g>
<g><path style="opacity:0.979" fill="#1f8e59" d="M 994.5,1175.5 C 1005.24,1190.62 1015.24,1206.29 1024.5,1222.5C 1006.35,1224.38 988.352,1226.38 970.5,1228.5C 965.263,1220.37 960.263,1212.03 955.5,1203.5C 969.038,1194.9 982.038,1185.57 994.5,1175.5 Z"/></g>
<g><path style="opacity:0.97" fill="#2cb271" d="M 458.5,1199.5 C 458.788,1229.62 473.955,1244.95 504,1245.5C 526.783,1245.88 541.283,1235.21 547.5,1213.5C 555.7,1210.43 564.033,1207.77 572.5,1205.5C 572.241,1235.86 557.574,1255.36 528.5,1264C 520.624,1266.05 512.624,1267.22 504.5,1267.5C 481.366,1262.47 458.032,1257.81 434.5,1253.5C 433.29,1253.07 432.29,1252.4 431.5,1251.5C 440.5,1234.17 449.5,1216.83 458.5,1199.5 Z"/></g>
<g><path style="opacity:0.928" fill="#ecc159" d="M 1258.5,1217.5 C 1264.17,1217.5 1269.83,1217.5 1275.5,1217.5C 1270.9,1232.97 1265.9,1248.3 1260.5,1263.5C 1259.72,1262.27 1259.22,1260.94 1259,1259.5C 1258.5,1245.5 1258.33,1231.5 1258.5,1217.5 Z"/></g>
<g><path style="opacity:0.923" fill="#ecc159" d="M 301.5,1220.5 C 301.949,1234.91 301.449,1249.24 300,1263.5C 294.807,1249.75 290.307,1235.75 286.5,1221.5C 291.527,1221.5 296.527,1221.16 301.5,1220.5 Z"/></g>
<g><path style="opacity:0.981" fill="#1a7f4e" d="M 920.5,1233.5 C 920.883,1239.18 923.55,1243.34 928.5,1246C 935.411,1247.38 942.411,1247.88 949.5,1247.5C 949.5,1253.17 949.5,1258.83 949.5,1264.5C 929.167,1264.5 908.833,1264.5 888.5,1264.5C 885.681,1261.93 882.681,1259.59 879.5,1257.5C 898.215,1255.83 916.881,1253.66 935.5,1251C 913.141,1247.78 890.808,1244.62 868.5,1241.5C 868.833,1240.17 869.167,1238.83 869.5,1237.5C 886.519,1236.36 903.519,1235.03 920.5,1233.5 Z"/></g>
<g><path style="opacity:0.994" fill="#197b4d" d="M 868.5,1241.5 C 890.808,1244.62 913.141,1247.78 935.5,1251C 916.881,1253.66 898.215,1255.83 879.5,1257.5C 874.129,1253.82 868.796,1250.15 863.5,1246.5C 865.5,1245.17 867.167,1243.5 868.5,1241.5 Z"/></g>
<g><path style="opacity:0.988" fill="#1c834e" d="M 1024.5,1222.5 C 1027.65,1226.77 1030.81,1231.1 1034,1235.5C 1038.12,1239.47 1042.62,1242.8 1047.5,1245.5C 1045.13,1250.95 1043.13,1256.62 1041.5,1262.5C 1026.17,1260.83 1010.83,1259.17 995.5,1257.5C 990.258,1255.28 985.758,1251.95 982,1247.5C 977.653,1241.47 973.82,1235.14 970.5,1228.5C 988.352,1226.38 1006.35,1224.38 1024.5,1222.5 Z"/></g>
<g><path style="opacity:0.956" fill="#126f42" d="M 1047.5,1245.5 C 1052.06,1246.81 1056.73,1247.48 1061.5,1247.5C 1061.5,1253.17 1061.5,1258.83 1061.5,1264.5C 1054.5,1264.5 1047.5,1264.5 1040.5,1264.5C 1040.83,1263.83 1041.17,1263.17 1041.5,1262.5C 1043.13,1256.62 1045.13,1250.95 1047.5,1245.5 Z"/></g>
<g><path style="opacity:0.998" fill="#1a8a52" d="M 863.5,1246.5 C 868.796,1250.15 874.129,1253.82 879.5,1257.5C 882.681,1259.59 885.681,1261.93 888.5,1264.5C 874.5,1264.5 860.5,1264.5 846.5,1264.5C 847.833,1258.83 849.167,1253.17 850.5,1247.5C 854.869,1247.53 859.202,1247.2 863.5,1246.5 Z"/></g>
<g><path style="opacity:0.965" fill="#28a76a" d="M 696.5,1242.5 C 698.556,1245.05 701.222,1246.55 704.5,1247C 710.491,1247.5 716.491,1247.67 722.5,1247.5C 722.5,1253.17 722.5,1258.83 722.5,1264.5C 714.833,1264.5 707.167,1264.5 699.5,1264.5C 698.934,1257.11 697.934,1249.77 696.5,1242.5 Z"/></g>
<g><path style="opacity:0.906" fill="#28a25e" d="M 850.5,1247.5 C 849.167,1253.17 847.833,1258.83 846.5,1264.5C 844.833,1264.5 843.167,1264.5 841.5,1264.5C 841.5,1258.83 841.5,1253.17 841.5,1247.5C 844.5,1247.5 847.5,1247.5 850.5,1247.5 Z"/></g>
<g><path style="opacity:0.955" fill="#126e41" d="M 1081.5,1247.5 C 1086.87,1252.87 1091.87,1258.54 1096.5,1264.5C 1087.17,1264.5 1077.83,1264.5 1068.5,1264.5C 1068.5,1258.83 1068.5,1253.17 1068.5,1247.5C 1072.83,1247.5 1077.17,1247.5 1081.5,1247.5 Z"/></g>
<g><path style="opacity:0.945" fill="#28a25e" d="M 834.5,1248.5 C 834.5,1253.83 834.5,1259.17 834.5,1264.5C 822.5,1264.5 810.5,1264.5 798.5,1264.5C 810.345,1258.99 822.345,1253.66 834.5,1248.5 Z"/></g>
<g><path style="opacity:0.913" fill="#2aa261" d="M 434.5,1253.5 C 458.032,1257.81 481.366,1262.47 504.5,1267.5C 484.282,1269.16 464.615,1266.66 445.5,1260C 441.44,1258.31 437.773,1256.14 434.5,1253.5 Z"/></g>
<g><path style="opacity:0.855" fill="#1a7f4e" d="M 995.5,1257.5 C 1010.83,1259.17 1026.17,1260.83 1041.5,1262.5C 1041.17,1263.17 1040.83,1263.83 1040.5,1264.5C 1028,1265.03 1015.67,1263.86 1003.5,1261C 1000.52,1260.3 997.858,1259.13 995.5,1257.5 Z"/></g>
<g><path style="opacity:0.955" fill="#d9a436" d="M 317.5,1304.5 C 330.184,1304.17 342.851,1304.5 355.5,1305.5C 378,1340.5 400.5,1375.5 423,1410.5C 423.667,1380.83 423.667,1351.17 423,1321.5C 421.833,1317.67 419.333,1315.17 415.5,1314C 411.848,1313.5 408.182,1313.33 404.5,1313.5C 404.5,1310.5 404.5,1307.5 404.5,1304.5C 421.5,1304.5 438.5,1304.5 455.5,1304.5C 455.5,1307.5 455.5,1310.5 455.5,1313.5C 451.818,1313.33 448.152,1313.5 444.5,1314C 440.23,1315.27 437.73,1318.1 437,1322.5C 436.5,1363.17 436.333,1403.83 436.5,1444.5C 431.125,1444.83 425.792,1444.49 420.5,1443.5C 396.864,1406.7 373.03,1370.03 349,1333.5C 348.053,1365.2 348.387,1396.86 350,1428.5C 354.077,1434.81 359.91,1437.14 367.5,1435.5C 367.5,1438.5 367.5,1441.5 367.5,1444.5C 350.833,1444.5 334.167,1444.5 317.5,1444.5C 317.5,1441.5 317.5,1438.5 317.5,1435.5C 325.09,1437.14 330.923,1434.81 335,1428.5C 336.133,1410.54 336.633,1392.54 336.5,1374.5C 336.633,1356.46 336.133,1338.46 335,1320.5C 330.923,1314.19 325.09,1311.86 317.5,1313.5C 317.5,1310.5 317.5,1307.5 317.5,1304.5 Z"/></g>
<g><path style="opacity:0.936" fill="#d9a436" d="M 802.5,1315.5 C 806.167,1315.5 809.833,1315.5 813.5,1315.5C 813.5,1323.5 813.5,1331.5 813.5,1339.5C 821.833,1339.5 830.167,1339.5 838.5,1339.5C 838.5,1343.5 838.5,1347.5 838.5,1351.5C 830.167,1351.5 821.833,1351.5 813.5,1351.5C 813.333,1376.17 813.5,1400.84 814,1425.5C 816.149,1432.97 821.149,1436.64 829,1436.5C 832.564,1436.1 836.064,1435.43 839.5,1434.5C 840.487,1437.77 840.82,1441.1 840.5,1444.5C 830.937,1446.45 821.27,1446.95 811.5,1446C 800.108,1442.93 794.275,1435.43 794,1423.5C 793.5,1399.5 793.333,1375.5 793.5,1351.5C 788.5,1351.5 783.5,1351.5 778.5,1351.5C 778.5,1348.5 778.5,1345.5 778.5,1342.5C 789.392,1342.14 796.559,1336.81 800,1326.5C 801.31,1322.93 802.143,1319.26 802.5,1315.5 Z"/></g>
<g><path style="opacity:0.943" fill="#d9a436" d="M 499.5,1337.5 C 508.506,1337.33 517.506,1337.5 526.5,1338C 541.505,1341.01 549.338,1350.17 550,1365.5C 550.333,1386.83 550.667,1408.17 551,1429.5C 553.353,1434.26 557.186,1436.26 562.5,1435.5C 562.5,1438.5 562.5,1441.5 562.5,1444.5C 553.475,1444.83 544.475,1444.5 535.5,1443.5C 534.334,1438.5 533.167,1433.5 532,1428.5C 519.112,1447.4 502.278,1451.9 481.5,1442C 470.068,1430.96 466.902,1417.79 472,1402.5C 477.951,1391.93 487.118,1386.09 499.5,1385C 509.793,1383.73 520.126,1383.23 530.5,1383.5C 530.876,1374.76 530.376,1366.1 529,1357.5C 525.813,1350.9 520.479,1347.57 513,1347.5C 500.15,1348.52 494.317,1355.52 495.5,1368.5C 481.427,1370.26 475.927,1364.26 479,1350.5C 479.883,1347.9 481.383,1345.73 483.5,1344C 488.603,1340.94 493.936,1338.77 499.5,1337.5 Z M 516.5,1392.5 C 521.167,1392.5 525.833,1392.5 530.5,1392.5C 530.666,1399.84 530.5,1407.17 530,1414.5C 527.019,1427.14 519.019,1433.48 506,1433.5C 494.8,1433.3 489.3,1427.46 489.5,1416C 489.701,1407.93 493.035,1401.59 499.5,1397C 505.087,1394.69 510.754,1393.19 516.5,1392.5 Z"/></g>
<g><path style="opacity:0.958" fill="#d9a436" d="M 629.5,1337.5 C 637.238,1337.14 644.905,1337.64 652.5,1339C 658.932,1342.7 661.432,1348.2 660,1355.5C 658.833,1360.67 655.667,1363.83 650.5,1365C 647.518,1365.5 644.518,1365.66 641.5,1365.5C 641.657,1352.78 635.99,1348.62 624.5,1353C 617.135,1361.75 613.302,1371.92 613,1383.5C 612.333,1398.17 612.333,1412.83 613,1427.5C 614.167,1431.33 616.667,1433.83 620.5,1435C 625.155,1435.5 629.821,1435.67 634.5,1435.5C 634.5,1438.5 634.5,1441.5 634.5,1444.5C 615.167,1444.5 595.833,1444.5 576.5,1444.5C 576.5,1441.5 576.5,1438.5 576.5,1435.5C 583.387,1436.71 588.553,1434.38 592,1428.5C 593.126,1416.22 593.626,1403.89 593.5,1391.5C 593.636,1379.43 593.136,1367.43 592,1355.5C 588.595,1349.63 583.428,1347.3 576.5,1348.5C 576.5,1345.5 576.5,1342.5 576.5,1339.5C 586.839,1339.33 597.172,1339.5 607.5,1340C 608.778,1345.49 610.111,1350.99 611.5,1356.5C 614.849,1347.49 620.849,1341.16 629.5,1337.5 Z"/></g>
<g><path style="opacity:0.947" fill="#d9a436" d="M 707.5,1337.5 C 746.561,1334.39 765.895,1352.56 765.5,1392C 766.459,1409.12 761.459,1424.12 750.5,1437C 737.556,1446.04 723.223,1449.04 707.5,1446C 690.036,1441.87 679.202,1431.04 675,1413.5C 671.13,1395.55 672.13,1377.89 678,1360.5C 684.051,1347.9 693.884,1340.23 707.5,1337.5 Z M 715.5,1347.5 C 730.59,1346.76 739.756,1353.76 743,1368.5C 745.761,1382.11 746.095,1395.78 744,1409.5C 740.801,1432.51 728.301,1440.34 706.5,1433C 698.957,1427.09 694.79,1419.26 694,1409.5C 691.879,1395.77 692.212,1382.11 695,1368.5C 697.396,1356.94 704.23,1349.94 715.5,1347.5 Z"/></g>
<g><path style="opacity:0.943" fill="#d9a436" d="M 883.5,1337.5 C 892.506,1337.33 901.506,1337.5 910.5,1338C 925.505,1341.01 933.338,1350.17 934,1365.5C 934.333,1386.83 934.667,1408.17 935,1429.5C 937.353,1434.26 941.186,1436.26 946.5,1435.5C 946.5,1438.5 946.5,1441.5 946.5,1444.5C 937.475,1444.83 928.475,1444.5 919.5,1443.5C 918.334,1438.5 917.167,1433.5 916,1428.5C 903.112,1447.4 886.278,1451.9 865.5,1442C 854.068,1430.96 850.902,1417.79 856,1402.5C 861.951,1391.93 871.118,1386.09 883.5,1385C 893.793,1383.73 904.126,1383.23 914.5,1383.5C 914.876,1374.76 914.376,1366.1 913,1357.5C 909.813,1350.9 904.479,1347.57 897,1347.5C 884.15,1348.52 878.317,1355.52 879.5,1368.5C 865.427,1370.26 859.927,1364.26 863,1350.5C 863.883,1347.9 865.383,1345.73 867.5,1344C 872.603,1340.94 877.936,1338.77 883.5,1337.5 Z M 900.5,1392.5 C 905.167,1392.5 909.833,1392.5 914.5,1392.5C 914.666,1399.84 914.5,1407.17 914,1414.5C 911.019,1427.14 903.019,1433.48 890,1433.5C 878.8,1433.3 873.3,1427.46 873.5,1416C 873.701,1407.93 877.035,1401.59 883.5,1397C 889.087,1394.69 894.754,1393.19 900.5,1392.5 Z"/></g>
<g><path style="opacity:0.953" fill="#d9a436" d="M 1015.5,1337.5 C 1023.57,1337.14 1031.57,1337.64 1039.5,1339C 1046.69,1342.19 1051.86,1347.36 1055,1354.5C 1064.71,1339.25 1078.54,1333.75 1096.5,1338C 1109.15,1341.76 1116.32,1350.26 1118,1363.5C 1119.21,1385.14 1119.88,1406.81 1120,1428.5C 1122.96,1434.4 1127.8,1436.73 1134.5,1435.5C 1134.5,1438.5 1134.5,1441.5 1134.5,1444.5C 1122.83,1444.5 1111.17,1444.5 1099.5,1444.5C 1099.67,1419.16 1099.5,1393.83 1099,1368.5C 1095.15,1352.21 1085.32,1347.04 1069.5,1353C 1063.6,1357.29 1060.1,1363.13 1059,1370.5C 1058.33,1389.5 1058.33,1408.5 1059,1427.5C 1061.57,1433.99 1066.41,1436.66 1073.5,1435.5C 1073.5,1438.5 1073.5,1441.5 1073.5,1444.5C 1061.83,1444.5 1050.17,1444.5 1038.5,1444.5C 1038.67,1418.5 1038.5,1392.5 1038,1366.5C 1033.23,1351.49 1023.39,1346.99 1008.5,1353C 1003.05,1356.79 999.55,1361.96 998,1368.5C 996.41,1388.13 996.076,1407.8 997,1427.5C 1000.37,1434.27 1005.87,1436.94 1013.5,1435.5C 1013.5,1438.5 1013.5,1441.5 1013.5,1444.5C 995.5,1444.5 977.5,1444.5 959.5,1444.5C 959.5,1441.5 959.5,1438.5 959.5,1435.5C 964.449,1436.04 969.116,1435.21 973.5,1433C 975.774,1430.66 976.941,1427.82 977,1424.5C 977.667,1402.5 977.667,1380.5 977,1358.5C 975.001,1350.57 969.834,1347.24 961.5,1348.5C 961.5,1345.5 961.5,1342.5 961.5,1339.5C 972.167,1339.5 982.833,1339.5 993.5,1339.5C 993.9,1344.56 994.733,1349.56 996,1354.5C 999.936,1345.72 1006.44,1340.05 1015.5,1337.5 Z"/></g>
<g><path style="opacity:0.943" fill="#d9a436" d="M 1178.5,1337.5 C 1187.51,1337.33 1196.51,1337.5 1205.5,1338C 1220.5,1341.01 1228.34,1350.17 1229,1365.5C 1229.33,1386.83 1229.67,1408.17 1230,1429.5C 1232.35,1434.26 1236.19,1436.26 1241.5,1435.5C 1241.5,1438.5 1241.5,1441.5 1241.5,1444.5C 1232.48,1444.83 1223.48,1444.5 1214.5,1443.5C 1213.33,1438.5 1212.17,1433.5 1211,1428.5C 1198.11,1447.4 1181.28,1451.9 1160.5,1442C 1149.07,1430.96 1145.9,1417.79 1151,1402.5C 1156.95,1391.93 1166.12,1386.09 1178.5,1385C 1188.79,1383.73 1199.13,1383.23 1209.5,1383.5C 1209.88,1374.76 1209.38,1366.1 1208,1357.5C 1204.81,1350.9 1199.48,1347.57 1192,1347.5C 1179.15,1348.52 1173.32,1355.52 1174.5,1368.5C 1160.43,1370.26 1154.93,1364.26 1158,1350.5C 1158.88,1347.9 1160.38,1345.73 1162.5,1344C 1167.6,1340.94 1172.94,1338.77 1178.5,1337.5 Z M 1195.5,1392.5 C 1200.17,1392.5 1204.83,1392.5 1209.5,1392.5C 1209.67,1399.84 1209.5,1407.17 1209,1414.5C 1206.02,1427.14 1198.02,1433.48 1185,1433.5C 1173.8,1433.3 1168.3,1427.46 1168.5,1416C 1168.7,1407.93 1172.03,1401.59 1178.5,1397C 1184.09,1394.69 1189.75,1393.19 1195.5,1392.5 Z"/></g>
</svg>
